<svg width="160" height="41" viewBox="0 0 160 41" fill="none" xmlns="http://www.w3.org/2000/svg">
<path d="M33.588 19.235C32.827 18.666 31.882 18.427 30.954 18.57H30.568V19.036C30.648 20.015 31.058 20.933 31.725 21.631C32.354 22.121 33.123 22.378 33.909 22.364H34.809V21.898C34.732 20.885 34.297 19.937 33.588 19.235ZM32.367 20.966C31.934 20.602 31.657 20.076 31.596 19.502C32.101 19.51 32.593 19.672 33.01 19.968C33.424 20.375 33.695 20.914 33.781 21.498C33.27 21.463 32.78 21.279 32.367 20.966ZM23.758 22.763C23.63 22.696 23.501 22.696 23.437 22.83C23.191 23.328 22.693 23.638 22.152 23.628C21.709 23.639 21.285 23.444 20.996 23.096C20.907 22.967 20.734 22.937 20.61 23.029C20.486 23.121 20.457 23.3 20.546 23.429C20.923 23.951 21.523 24.249 22.152 24.227C22.897 24.243 23.579 23.798 23.887 23.096C23.933 22.967 23.878 22.823 23.758 22.763Z" fill="#7B7D81"/>
<path d="M30.376 27.489C30.276 25.295 29.82 23.135 29.026 21.099C29.107 20.57 29.149 20.037 29.155 19.502C29.155 18.875 29.09 18.25 28.962 17.638C29.711 17.338 30.406 16.911 31.018 16.373H31.147C31.975 16.144 32.715 15.656 33.267 14.976C33.647 14.193 33.738 13.294 33.524 12.446L33.395 12.047H33.01C32.945 12.114 31.532 12.38 30.89 13.445C30.473 14.19 30.358 15.075 30.568 15.907C30.065 16.379 29.475 16.741 28.834 16.972C29.133 16.747 29.375 16.45 29.54 16.107C29.803 15.35 29.78 14.518 29.476 13.778C30.209 12.964 30.621 11.895 30.633 10.782C30.563 8.445 28.714 6.588 26.457 6.589C25.906 6.597 25.362 6.71 24.85 6.922C25.096 6.148 25.226 5.34 25.236 4.526V4.06H23.437C23.516 3.403 23.356 2.738 22.987 2.196C22.144 1.092 20.605 0.885 19.518 1.731C19.202 1.227 18.812 0.777 18.362 0.399L17.912 0L17.462 0.399C17.334 0.466 15.085 2.596 15.149 5.391V5.591C14.288 4.808 13.123 4.488 12.001 4.726C10.411 4.864 8.98 5.778 8.146 7.188C8.082 7.321 8.018 7.388 8.018 7.521C6.026 7.787 5.063 10.25 5.191 11.914C5.188 12.514 5.32 13.107 5.576 13.644H4.741C3.272 13.803 1.928 14.572 1.015 15.774L0.757996 16.107L1.079 16.506C1.335 16.757 1.615 16.98 1.914 17.172C1.542 17.561 1.333 18.088 1.336 18.636C1.319 19.213 1.528 19.772 1.915 20.186C2.303 20.6 2.836 20.833 3.392 20.833H3.521C3.536 21.217 3.601 21.598 3.713 21.964L3.842 22.563H4.42C5.324 22.457 6.198 22.163 6.99 21.698C6.358 23.582 6.033 25.561 6.026 27.555C6.026 30.55 7.44 33.878 9.817 35.343C8.245 36.438 7.343 38.308 7.44 40.268C7.438 40.648 7.717 40.965 8.082 41H8.146C8.328 41.001 8.502 40.922 8.625 40.782C8.747 40.643 8.807 40.456 8.789 40.268C8.699 38.427 9.762 36.735 11.423 36.075C11.423 36.038 11.452 36.008 11.487 36.008H12.515L13.929 35.875C15.014 36.967 16.463 37.587 17.976 37.606C19.539 37.615 21.033 36.938 22.088 35.742C22.648 35.928 23.234 36.018 23.822 36.008H24.658C24.658 35.971 24.686 35.942 24.722 35.942C24.757 35.942 24.786 35.971 24.786 36.008C26.409 36.706 27.436 38.383 27.356 40.201C27.356 40.606 27.672 40.933 28.063 40.933C28.453 40.933 28.769 40.606 28.769 40.201C28.846 38.28 27.975 36.45 26.457 35.343C28.898 33.878 30.376 30.484 30.376 27.489ZM31.661 14.044C31.924 13.682 32.28 13.405 32.688 13.245C32.753 13.664 32.661 14.092 32.432 14.443C32.169 14.805 31.812 15.082 31.404 15.242C31.37 14.825 31.46 14.407 31.661 14.044ZM18.04 29.552C13.841 29.546 10.115 26.758 8.789 22.63H9.431C11.147 22.671 12.84 22.209 14.314 21.299C15.08 20.824 15.81 20.29 16.498 19.701H16.563L16.948 20.101L17.398 19.768C17.668 19.616 17.907 19.413 18.105 19.169C19.843 20.691 21.957 21.682 24.208 22.031C24.647 22.304 25.123 22.506 25.621 22.63H26.007L26.135 22.231H27.356C26.179 26.553 22.376 29.542 18.04 29.552ZM9.239 17.039C9.968 17.274 10.724 17.408 11.487 17.438C12.77 17.432 14.03 17.088 15.149 16.44C15.111 17.166 15.291 17.887 15.663 18.503C15.031 19.086 14.342 19.599 13.607 20.034C12.054 20.965 10.247 21.339 8.468 21.099C8.468 20.833 8.403 20.567 8.403 20.3C8.985 19.322 9.275 18.187 9.239 17.039ZM17.591 10.183H17.655L17.783 10.317C17.815 10.511 17.979 10.652 18.169 10.649H19.711C18.916 10.946 18.224 11.479 17.719 12.18C17.751 11.893 17.751 11.602 17.719 11.315C17.705 10.935 17.662 10.557 17.591 10.183ZM20.16 12.114C20.786 11.974 21.439 12.044 22.024 12.313C21.667 12.923 21.125 13.391 20.482 13.644C19.856 13.794 19.201 13.724 18.619 13.445C18.975 12.835 19.518 12.367 20.16 12.114ZM27.099 17.571C26.341 17.761 25.566 17.873 24.786 17.904L23.437 17.771C24.147 17.619 24.797 17.248 25.3 16.706C25.711 16.26 25.999 15.709 26.135 15.109H26.971C26.661 15.909 26.708 16.81 27.099 17.571ZM22.923 18.237C22.741 18.909 22.719 19.617 22.859 20.3C21.425 19.893 20.104 19.14 19.004 18.104C19.29 17.643 19.466 17.118 19.518 16.573V16.107L20.353 16.839C21.056 17.4 21.836 17.848 22.666 18.17L22.923 18.237ZM23.951 20.567C23.752 20.084 23.664 19.56 23.694 19.036C24.261 19.192 24.76 19.544 25.107 20.034C25.37 20.495 25.462 21.039 25.364 21.565C24.805 21.391 24.311 21.043 23.951 20.567ZM24.658 16.041C24.175 16.54 23.538 16.846 22.859 16.906C22.893 15.888 23.459 14.97 24.336 14.51C24.604 14.71 24.911 14.846 25.236 14.909C25.108 15.318 24.912 15.701 24.658 16.041ZM22.859 14.443C22.229 15.228 21.888 16.218 21.895 17.239C20.953 16.702 20.106 16.005 19.389 15.175H19.903L20.867 15.042C21.761 14.733 22.529 14.124 23.052 13.312L23.501 13.911C23.257 14.046 23.04 14.226 22.859 14.443ZM22.281 10.849C21.738 10.68 21.176 10.591 20.61 10.583C21.221 10.505 21.811 10.301 22.345 9.984C22.294 10.269 22.273 10.559 22.281 10.849ZM27.742 19.502C27.734 19.948 27.691 20.393 27.613 20.833H26.264C26.248 20.362 26.116 19.903 25.878 19.502C25.574 19.062 25.179 18.699 24.722 18.437H24.786C25.738 18.392 26.684 18.258 27.613 18.037C27.685 18.522 27.728 19.011 27.742 19.502ZM28.705 15.774C28.468 16.166 28.135 16.488 27.742 16.706C27.667 16.307 27.689 15.896 27.806 15.508C28.042 15.132 28.376 14.832 28.769 14.643C28.844 15.019 28.822 15.41 28.705 15.774ZM25.493 8.386L25.686 8.187L26.457 8.054C27.189 8.036 27.899 8.32 28.429 8.845C28.959 9.369 29.267 10.09 29.283 10.849C29.283 10.916 29.219 10.982 29.219 11.049C29.031 11.378 28.766 11.653 28.448 11.847C28.638 11.553 28.729 11.202 28.705 10.849C28.738 10.011 28.186 9.269 27.395 9.089C26.604 8.909 25.803 9.342 25.493 10.117C25.296 9.558 25.296 8.945 25.493 8.386ZM27.806 10.849C27.806 11.29 27.461 11.648 27.035 11.648C26.609 11.648 26.264 11.29 26.264 10.849C26.264 10.408 26.609 10.05 27.035 10.05C27.461 10.05 27.806 10.408 27.806 10.849ZM25.3 11.981C25.724 12.52 26.278 12.934 26.906 13.179H27.42C27.663 13.205 27.908 13.159 28.127 13.045C27.659 13.449 27.065 13.662 26.457 13.644H26.264L25.686 13.511L25.107 13.312C24.537 12.98 24.087 12.467 23.822 11.847C23.715 11.548 23.65 11.234 23.63 10.916C23.676 10.202 23.946 9.524 24.401 8.985C24.377 10.059 24.693 11.11 25.3 11.981ZM20.096 2.396C20.34 2.163 20.665 2.043 20.996 2.063C21.468 2.067 21.914 2.287 22.216 2.662C22.518 3.056 22.615 3.579 22.473 4.06C21.896 4.121 21.332 4.279 20.803 4.526C20.653 3.779 20.393 3.061 20.032 2.396H20.096ZM20.803 5.791C21.823 5.211 22.985 4.957 24.144 5.058C24.058 6.402 23.484 7.663 22.538 8.586C21.515 9.297 20.298 9.647 19.068 9.584C20.019 8.541 20.626 7.213 20.803 5.791ZM17.912 1.997C18.788 2.856 19.335 4.014 19.454 5.258C19.374 6.505 18.874 7.683 18.04 8.586C17.178 7.724 16.652 6.563 16.563 5.325C16.498 3.927 17.398 2.662 17.912 1.997ZM16.563 16.307C16.684 15.614 17.023 14.982 17.526 14.51C17.924 15.067 18.128 15.747 18.105 16.44C17.983 17.133 17.644 17.764 17.141 18.237C16.711 17.697 16.503 17.004 16.563 16.307ZM15.727 8.852C16.091 9.67 16.309 10.55 16.37 11.448C16.396 12.556 16.004 13.63 15.278 14.443C14.276 15.479 12.901 16.034 11.487 15.974C10.612 15.966 9.752 15.737 8.982 15.308H8.853C8.383 15.068 7.967 14.728 7.632 14.31L8.596 14.443C10.337 14.366 11.996 13.659 13.286 12.446C14.419 11.519 15.267 10.27 15.727 8.852ZM10.716 11.648C10.716 10.913 11.291 10.317 12.001 10.317C12.538 10.328 13.017 10.667 13.222 11.182L12.708 11.648C12.251 12.054 11.756 12.411 11.23 12.713C11.01 12.552 10.851 12.316 10.78 12.047C10.748 11.916 10.726 11.783 10.716 11.648ZM9.367 7.92C9.963 6.872 11.022 6.199 12.194 6.123C12.982 5.991 13.785 6.236 14.378 6.789L14.764 7.321C14.828 7.521 14.828 7.654 14.892 7.854C14.842 8.815 14.48 9.73 13.864 10.45C13.479 9.759 12.771 9.329 12.001 9.318C10.833 9.351 9.883 10.306 9.817 11.515C9.025 10.5 8.851 9.111 9.367 7.92ZM7.632 9.185C7.659 10.787 8.364 12.296 9.56 13.312C8.794 13.514 7.986 13.468 7.247 13.179L6.797 12.846C6.672 12.529 6.606 12.19 6.604 11.847C6.522 10.842 6.903 9.854 7.632 9.185ZM3.585 19.834H3.392C2.753 19.834 2.236 19.298 2.236 18.636C2.232 18.252 2.429 17.896 2.75 17.705L3.97 18.17C3.752 18.698 3.621 19.261 3.585 19.834ZM3.713 16.906C3.438 16.849 3.176 16.736 2.942 16.573L2.236 16.041C2.917 15.301 3.825 14.83 4.806 14.709C5.338 14.683 5.869 14.798 6.347 15.042L6.926 15.641C6.099 15.916 5.349 16.396 4.741 17.039C4.394 17.049 4.047 17.004 3.713 16.906ZM4.934 20.899V20.5C4.904 19.964 4.948 19.426 5.063 18.903C5.189 18.588 5.363 18.296 5.576 18.037C6.16 17.378 6.964 16.974 7.825 16.906C7.905 17.813 7.703 18.723 7.247 19.502C6.666 20.244 5.843 20.74 4.934 20.899ZM11.873 34.544C9.239 34.144 7.44 30.617 7.44 27.489C7.444 26.302 7.574 25.119 7.825 23.961C9.246 27.453 12.218 30.01 15.792 30.817C16.119 31.66 15.998 32.619 15.47 33.346C14.549 34.357 13.191 34.809 11.873 34.544ZM17.976 36.141C17.053 36.141 16.153 35.838 15.406 35.276C15.849 34.994 16.24 34.633 16.563 34.211C17.267 33.319 17.55 32.147 17.334 31.016H19.068C18.823 32.158 19.082 33.354 19.775 34.278C20.048 34.619 20.374 34.911 20.739 35.143C19.959 35.8 18.981 36.153 17.976 36.141ZM24.465 34.544C23.148 34.785 21.802 34.336 20.867 33.346C20.326 32.571 20.228 31.554 20.61 30.683C24.139 29.792 27.035 27.189 28.384 23.695C28.735 24.928 28.93 26.203 28.962 27.489C28.962 30.617 27.163 34.144 24.465 34.544Z" fill="#7B7D81"/>
<path d="M15.021 23.096C14.732 23.444 14.307 23.639 13.864 23.628C13.324 23.638 12.825 23.328 12.579 22.83C12.515 22.696 12.387 22.696 12.258 22.763C12.139 22.823 12.083 22.967 12.13 23.096C12.438 23.798 13.12 24.243 13.864 24.227C14.493 24.249 15.093 23.951 15.47 23.429C15.559 23.3 15.53 23.121 15.406 23.029C15.282 22.937 15.109 22.967 15.021 23.096ZM19.261 27.222C18.945 27.579 18.507 27.794 18.04 27.821C17.553 27.804 17.091 27.589 16.755 27.222C16.667 27.094 16.494 27.064 16.37 27.156C16.246 27.248 16.217 27.427 16.306 27.555C16.745 28.078 17.372 28.39 18.04 28.42C18.652 28.367 19.224 28.083 19.646 27.622C19.753 27.511 19.753 27.333 19.646 27.222C19.54 27.112 19.367 27.112 19.261 27.222ZM29.476 6.656L29.862 6.922L30.119 6.589C30.796 5.884 31.168 4.922 31.147 3.927C31.082 2.463 29.862 1.464 29.862 1.398L29.476 1.131L29.219 1.464C28.544 2.199 28.175 3.179 28.191 4.193C28.313 5.15 28.77 6.026 29.476 6.656ZM29.605 2.529C29.931 2.93 30.152 3.412 30.247 3.927C30.247 4.503 30.067 5.064 29.733 5.524C29.383 5.139 29.159 4.651 29.091 4.127C29.115 3.555 29.293 3.001 29.605 2.529ZM39.627 3.128C39.499 3.128 36.543 2.662 34.552 4.459C32.56 6.256 32.496 9.252 32.496 9.385V9.784H33.781C35.287 9.835 36.764 9.341 37.957 8.386C39.948 6.656 40.013 3.594 40.013 3.461V3.195L39.627 3.128ZM37.378 7.787C36.094 8.852 34.295 8.919 33.459 8.919C33.588 8.054 33.909 6.256 35.13 5.192C36.255 4.324 37.652 3.92 39.049 4.06C38.934 5.468 38.342 6.788 37.378 7.787Z" fill="#7B7D81"/>
<path d="M152.508 20.966C152.379 20.9 152.251 20.966 152.123 21.099C151.867 21.621 151.337 21.935 150.773 21.898C150.301 21.894 149.855 21.675 149.553 21.299C149.488 21.166 149.296 21.166 149.167 21.299C149.039 21.432 149.039 21.565 149.103 21.698C149.519 22.206 150.13 22.498 150.773 22.497C151.555 22.532 152.284 22.089 152.636 21.365C152.681 21.297 152.692 21.211 152.667 21.133C152.642 21.055 152.583 20.993 152.508 20.966ZM143.321 21.299C143.019 21.675 142.572 21.894 142.1 21.898C141.537 21.935 141.006 21.621 140.751 21.099C140.622 20.966 140.494 20.9 140.365 20.966C140.236 21.051 140.183 21.218 140.237 21.365C140.601 22.077 141.322 22.515 142.1 22.497C142.743 22.498 143.354 22.206 143.77 21.698C143.835 21.565 143.835 21.365 143.706 21.299C143.578 21.232 143.385 21.166 143.321 21.299ZM134.262 27.955L134.583 28.088L134.712 27.755C135.033 27.192 135.103 26.512 134.904 25.891C134.603 25.301 134.099 24.85 133.491 24.627L133.17 24.494L133.041 24.826C132.712 25.387 132.641 26.07 132.849 26.69C133.15 27.28 133.654 27.732 134.262 27.955ZM133.555 25.559C133.839 25.673 134.053 25.92 134.133 26.224C134.248 26.473 134.271 26.757 134.198 27.023C133.929 26.887 133.722 26.648 133.62 26.357C133.536 26.1 133.514 25.826 133.555 25.559Z" fill="#7B7D81"/>
<path d="M159.254 9.25218C159.338 9.05518 159.313 8.82618 159.19 8.65318C159.103 8.45818 158.939 8.31218 158.74 8.25318L140.558 2.86218C140.364 2.81718 140.16 2.84118 139.98 2.92918C139.801 3.03018 139.664 3.19618 139.594 3.39518L138.31 8.25318C135.997 8.98618 134.326 10.1842 134.326 11.8482C134.331 12.6512 134.685 13.4092 135.29 13.9112C134.901 15.0892 134.705 16.3262 134.712 17.5722C134.706 21.3282 136.393 24.8732 139.273 27.1562C138.726 27.5482 138.117 27.8412 137.474 28.0212C136.412 28.3452 135.296 28.4362 134.198 28.2882H134.069C133.587 27.6382 132.865 27.2282 132.078 27.1562C131.286 27.1062 130.506 27.3682 129.893 27.8882L129.572 28.1542L129.829 28.4212C130.365 29.0482 131.089 29.4702 131.885 29.6192H132.142C132.734 29.5952 133.31 29.4112 133.812 29.0862C133.494 29.3192 133.248 29.6432 133.106 30.0182C132.953 30.6582 133.07 31.3362 133.427 31.8822L133.62 32.1482L133.877 32.0152C134.467 31.7782 134.933 31.2952 135.161 30.6842C135.288 30.1452 135.22 29.5762 134.969 29.0862H136.061C135.718 29.5422 135.537 30.1062 135.547 30.6842C135.651 31.3272 135.998 31.9022 136.511 32.2812L136.768 32.4812L137.025 32.2142C137.419 31.7332 137.625 31.1152 137.603 30.4842C137.518 29.9182 137.245 29.4002 136.832 29.0202L137.667 28.7532L138.181 28.6202C137.988 29.1342 137.988 29.7042 138.181 30.2182C138.44 30.8022 138.933 31.2402 139.53 31.4162L139.851 31.5492L139.98 31.2162C140.239 30.6312 140.284 29.9692 140.108 29.3522C139.864 28.8452 139.454 28.4452 138.952 28.2212L139.723 27.8222C139.723 27.7552 139.787 27.7552 139.851 27.6882C140.631 28.2372 141.472 28.6842 142.357 29.0202C142.752 30.3922 142.381 31.8782 141.393 32.8802H141.201L138.823 33.2132C138.631 33.2132 138.502 33.4132 138.438 33.6122V33.7452C136.304 34.8162 134.972 37.0812 135.033 39.5362C135.015 39.7412 135.081 39.9452 135.216 40.0972C135.35 40.2492 135.541 40.3352 135.74 40.3352H135.804C136.191 40.2732 136.485 39.9412 136.511 39.5362C136.42 38.0282 137.073 36.5752 138.245 35.6752L137.796 39.6692C137.796 39.9352 137.988 40.2012 138.181 40.2012C138.303 40.2462 138.438 40.2252 138.541 40.1452C138.645 40.0642 138.702 39.9362 138.695 39.8022L139.337 34.0782L140.879 33.8122L141.715 38.8702C141.782 39.0792 141.955 39.2322 142.164 39.2702H150.388C150.613 39.2722 150.805 39.1012 150.838 38.8702L151.673 33.8122L153.279 34.0782L153.857 39.8022C153.889 40.0332 154.082 40.2042 154.307 40.2012H154.371C154.628 40.2012 154.757 39.9352 154.757 39.6692L154.307 35.6752C155.485 36.5762 156.158 38.0202 156.106 39.5362C156.042 39.9352 156.363 40.2682 156.812 40.3352C157.225 40.3032 157.553 39.9632 157.583 39.5362C157.616 37.0702 156.262 34.8092 154.114 33.7452V33.6122C154.114 33.3922 153.942 33.2132 153.729 33.2132L151.416 32.8802H151.159C150.195 31.9192 149.803 30.4962 150.131 29.1532C154.902 27.4912 158.111 22.8532 158.097 17.6382C158.086 16.6312 157.978 15.6282 157.776 14.6432L159.254 9.25218ZM131.949 28.8202C131.514 28.7462 131.111 28.5372 130.793 28.2212C131.17 28.0242 131.591 27.9322 132.013 27.9552C132.437 28.0242 132.836 28.2072 133.17 28.4872C132.805 28.7242 132.379 28.8402 131.949 28.8202ZM134.39 30.4172C134.311 30.6822 134.154 30.9152 133.941 31.0832C133.857 30.8262 133.835 30.5522 133.877 30.2842C133.973 30.0472 134.128 29.8412 134.326 29.6852C134.414 29.9182 134.436 30.1722 134.39 30.4172ZM136.832 30.4842C136.871 30.7452 136.801 31.0112 136.639 31.2162C136.481 31.0252 136.37 30.7962 136.318 30.5502C136.314 30.2712 136.38 29.9962 136.511 29.7522C136.682 29.9602 136.793 30.2142 136.832 30.4842ZM139.402 29.6192C139.467 29.8812 139.467 30.1552 139.402 30.4172C139.184 30.2662 139.007 30.0602 138.888 29.8182C138.794 29.5612 138.794 29.2772 138.888 29.0202C139.105 29.1712 139.282 29.3772 139.402 29.6192ZM135.804 11.8482C135.804 11.1822 136.896 10.2502 138.823 9.65118L150.966 13.2452C149.617 14.1112 147.176 14.7762 143.963 14.7762C138.888 14.7762 135.804 13.1122 135.804 11.8482ZM136.189 17.5722C136.191 16.6262 136.321 15.6852 136.575 14.7762C138.438 15.7752 141.265 16.3072 143.963 16.3072H145.248C143.513 17.8382 140.751 19.1692 136.254 19.0362C136.197 18.5502 136.176 18.0612 136.189 17.5722ZM150.645 34.6112L150.002 38.2712H142.55L141.907 34.5442C143.019 35.8832 144.635 36.6602 146.34 36.6742C148.004 36.7012 149.588 35.9422 150.645 34.6112ZM143.963 29.4192C144.764 29.6102 145.583 29.6992 146.405 29.6852C147.116 29.6852 147.825 29.6182 148.525 29.4862C148.395 30.9012 148.811 32.3132 149.681 33.4132C148.899 34.5102 147.657 35.1542 146.34 35.1432C144.981 35.1182 143.706 34.4572 142.871 33.3462C143.695 32.2242 144.084 30.8232 143.963 29.4192ZM146.405 28.1542C144.701 28.1612 143.022 27.7272 141.522 26.8902C142.681 26.4872 143.925 26.4182 145.12 26.6902H145.184C145.545 26.8782 145.938 26.9922 146.34 27.0232C147.009 26.9932 147.636 26.6802 148.075 26.1582C148.203 26.0252 148.139 25.8912 148.011 25.7582C147.882 25.6252 147.754 25.6922 147.625 25.7582C147.305 26.1552 146.839 26.3972 146.34 26.4242C146.025 26.4062 145.718 26.3152 145.441 26.1582C145.441 26.0472 145.355 25.9582 145.248 25.9582L144.991 25.7582C144.927 25.6252 144.734 25.6252 144.606 25.6922L144.477 25.8912C143.421 25.7752 142.353 25.8652 141.329 26.1582L140.751 26.3572C138.742 24.9702 137.264 22.8982 136.575 20.5002H136.96C142.164 20.5002 145.184 18.5702 146.983 16.5732C147.924 17.7252 149.055 18.6942 150.324 19.4352C151.895 20.4032 153.7 20.8882 155.528 20.8332H156.17C154.783 25.2022 150.844 28.1552 146.405 28.1542ZM156.491 19.2362C154.622 19.4712 152.729 19.0742 151.095 18.1042C150.051 17.5262 149.116 16.7592 148.332 15.8412C149.943 15.5792 151.454 14.8662 152.701 13.7782L156.299 14.8432C156.504 15.7372 156.612 16.6522 156.62 17.5722C156.644 18.1302 156.601 18.6892 156.491 19.2362ZM156.556 13.3122L139.787 8.32018L140.815 4.52618L157.648 9.51818L156.556 13.3122Z" fill="#7B7D81"/>
<path d="M121.798 35.409H121.67C121.412 36.201 120.676 36.718 119.871 36.674C119.338 36.721 118.822 36.467 118.522 36.008H118.843C119.871 36.008 120.77 35.542 120.77 34.411C120.771 34.028 120.62 33.662 120.353 33.398C120.086 33.134 119.726 32.995 119.357 33.013C118.783 33.03 118.24 33.287 117.853 33.726C117.465 34.166 117.266 34.749 117.301 35.343V35.675C117.108 36.008 116.916 36.208 116.594 36.208C116.273 36.208 115.823 35.542 115.631 35.209H115.438C115.181 35.209 114.603 35.609 114.603 35.875C114.675 36.2 114.831 36.499 115.052 36.74C115.195 37.098 115.261 37.485 115.245 37.872C115.245 38.604 114.988 39.203 114.603 39.203C114.217 39.203 114.025 38.604 114.025 37.672V34.743C115.438 34.278 116.53 33.279 116.53 32.148C116.532 31.735 116.365 31.341 116.072 31.062C115.778 30.783 115.385 30.646 114.988 30.683C113.575 30.683 112.868 32.148 112.868 33.878V35.476C112.675 36.075 112.29 36.674 111.776 36.674C111.262 36.674 111.262 36.341 111.262 35.875C111.262 35.409 111.39 33.679 111.39 33.479C111.39 33.279 111.326 33.213 111.198 33.213H110.427C110.298 33.213 110.234 33.279 110.234 33.479V33.612H110.17C109.827 33.264 109.365 33.072 108.885 33.08C108.299 33.095 107.745 33.362 107.356 33.816C106.966 34.27 106.775 34.871 106.829 35.476V35.808C106.544 36.414 105.936 36.781 105.287 36.74C104.914 36.799 104.536 36.685 104.251 36.429C103.967 36.172 103.805 35.8 103.809 35.409C103.809 34.61 104.195 34.144 104.709 34.144C105.005 34.143 105.254 34.372 105.287 34.677C105.287 34.743 105.351 34.743 105.415 34.743C105.48 34.743 106.251 34.477 106.251 34.344C106.15 33.561 105.468 33.001 104.709 33.08C104.118 33.096 103.559 33.361 103.159 33.813C102.759 34.264 102.554 34.864 102.589 35.476C102.579 35.591 102.601 35.706 102.653 35.808C102.396 36.274 102.01 36.674 101.689 36.674C101.368 36.674 101.175 36.407 101.175 35.875C101.175 35.343 101.239 34.743 101.239 34.411C101.26 34.04 101.123 33.678 100.863 33.421C100.603 33.165 100.247 33.04 99.89 33.08C99.15 33.08 98.476 33.52 98.156 34.211C98.156 34.011 98.22 33.612 98.22 33.479C98.22 33.346 98.156 33.213 97.963 33.213H97.256C97.114 33.213 96.999 33.332 96.999 33.479V35.542C96.719 36.308 95.989 36.794 95.2 36.74C94.684 36.793 94.185 36.534 93.915 36.075H94.237C95.265 36.075 96.164 35.609 96.164 34.477C96.147 34.089 95.982 33.723 95.705 33.461C95.428 33.199 95.061 33.061 94.686 33.08C94.112 33.096 93.569 33.354 93.182 33.793C92.794 34.232 92.595 34.815 92.63 35.409C92.621 35.546 92.643 35.682 92.695 35.808C92.438 36.208 92.116 36.674 91.667 36.674C91.217 36.674 91.153 36.341 91.153 35.808V33.479C91.153 33.279 91.089 33.213 90.96 33.213H90.189C90.047 33.213 89.932 33.332 89.932 33.479V35.542C89.644 36.271 88.957 36.745 88.197 36.74C87.362 36.74 86.848 36.141 86.848 35.143V34.743C88.133 34.344 89.354 33.346 89.354 32.148C89.356 31.735 89.189 31.341 88.896 31.062C88.602 30.783 88.209 30.646 87.812 30.683C86.399 30.683 85.692 32.148 85.692 33.945V35.209C85.692 35.409 85.756 35.609 85.756 35.808C85.756 36.008 85.178 36.674 84.792 36.674C84.407 36.674 84.214 36.341 84.214 35.808C84.214 35.276 84.278 34.011 84.278 33.479C84.278 33.332 84.163 33.213 84.021 33.213H83.25C83.122 33.213 83.058 33.346 83.058 33.479V35.542C82.865 36.008 82.415 36.674 81.966 36.674C81.516 36.674 81.452 36.341 81.452 35.942C81.452 35.542 81.516 34.677 81.516 34.344C81.499 33.991 81.348 33.659 81.094 33.422C80.841 33.185 80.508 33.061 80.167 33.08C79.396 33.104 78.714 33.601 78.432 34.344V34.211C78.432 33.586 77.943 33.08 77.34 33.08C76.618 33.09 75.968 33.531 75.669 34.211C75.669 34.011 75.734 33.612 75.734 33.479C75.734 33.332 75.619 33.213 75.477 33.213H74.77C74.628 33.213 74.513 33.332 74.513 33.479V35.542C74.32 36.075 73.935 36.674 73.421 36.674C72.907 36.674 72.971 36.341 72.971 35.875C72.971 35.409 73.035 33.679 73.035 33.479C73.035 33.279 72.971 33.213 72.843 33.213H72.072C71.943 33.213 71.879 33.279 71.879 33.479V33.612H71.815C71.472 33.264 71.009 33.072 70.53 33.08C69.944 33.095 69.39 33.362 69 33.816C68.611 34.27 68.42 34.871 68.474 35.476C68.474 36.873 69.18 37.739 70.337 37.739C71.015 37.76 71.642 37.37 71.943 36.74V36.873C71.943 37.406 72.457 37.739 73.164 37.739C73.674 37.739 74.161 37.522 74.513 37.14V37.406C74.513 37.553 74.628 37.672 74.77 37.672H75.477C75.619 37.672 75.734 37.553 75.734 37.406V36.94C75.734 36.008 76.119 34.144 76.954 34.144C77.79 34.144 77.468 34.411 77.468 34.877V37.406C77.468 37.539 77.533 37.672 77.661 37.672H78.368C78.56 37.672 78.625 37.539 78.625 37.339C78.625 35.476 79.139 34.144 79.781 34.144C80.424 34.144 80.295 34.411 80.295 34.877C80.295 35.343 80.231 35.808 80.231 36.341C80.23 36.723 80.381 37.089 80.648 37.354C80.916 37.618 81.275 37.757 81.644 37.739C82.249 37.729 82.816 37.435 83.186 36.94C83.419 37.451 83.926 37.766 84.471 37.739C85.144 37.74 85.772 37.39 86.142 36.807C86.564 37.432 87.27 37.784 88.005 37.739C88.796 37.763 89.562 37.45 90.125 36.873C90.303 37.439 90.838 37.799 91.41 37.739C92.077 37.718 92.696 37.373 93.08 36.807C93.552 37.443 94.299 37.793 95.072 37.739C95.771 37.766 96.456 37.529 96.999 37.073V37.339C96.996 37.5 97.104 37.64 97.256 37.672H97.963C98.156 37.672 98.22 37.539 98.22 37.339V37.073C98.22 35.875 98.67 34.144 99.441 34.144C100.212 34.144 100.019 34.477 100.019 34.877C100.019 35.276 99.955 35.808 99.955 36.341C99.954 36.723 100.105 37.089 100.372 37.354C100.639 37.618 100.999 37.757 101.368 37.739C102.028 37.757 102.644 37.399 102.974 36.807C103.459 37.425 104.197 37.77 104.966 37.739C105.778 37.774 106.568 37.461 107.15 36.873C107.454 37.419 108.02 37.75 108.628 37.739C109.31 37.777 109.946 37.382 110.234 36.74H110.298V36.873C110.298 37.406 110.812 37.739 111.455 37.739C111.985 37.749 112.497 37.532 112.868 37.14V37.739C112.868 39.269 113.382 40.268 114.474 40.268C115.566 40.268 116.209 39.203 116.209 38.005C116.226 37.759 116.204 37.512 116.145 37.273H116.53C116.97 37.267 117.388 37.074 117.687 36.74C118.127 37.423 118.889 37.805 119.678 37.739C120.89 37.858 122.017 37.08 122.377 35.875V35.742C122.203 35.598 122.008 35.486 121.798 35.409ZM114.988 31.682C115.113 31.658 115.242 31.699 115.332 31.792C115.422 31.885 115.461 32.018 115.438 32.148C115.438 32.747 114.795 33.412 114.025 33.745C114.089 32.547 114.41 31.682 114.988 31.682ZM87.812 31.682C87.937 31.658 88.065 31.699 88.155 31.792C88.245 31.885 88.285 32.018 88.262 32.148C88.262 32.88 87.426 33.479 86.848 33.745C86.913 32.747 87.169 31.682 87.812 31.682ZM70.53 36.674C70.023 36.605 69.656 36.137 69.694 35.609C69.659 35.245 69.769 34.881 70 34.604C70.231 34.327 70.562 34.161 70.915 34.144C71.28 34.176 71.621 34.342 71.879 34.61C71.879 35.343 71.429 36.674 70.53 36.674ZM93.723 35.143C93.705 34.86 93.797 34.582 93.978 34.37C94.158 34.157 94.414 34.028 94.686 34.011C95.008 34.011 95.2 34.144 95.2 34.477C95.2 34.81 94.622 35.276 94.044 35.276H93.723V35.143ZM108.885 36.674C108.378 36.605 108.011 36.137 108.05 35.609C108.014 35.245 108.125 34.881 108.355 34.604C108.586 34.327 108.917 34.161 109.27 34.144C109.635 34.176 109.976 34.342 110.234 34.61C110.234 35.343 109.784 36.674 108.885 36.674ZM118.393 35.143C118.355 34.578 118.75 34.081 119.293 34.011C119.614 34.011 119.807 34.144 119.807 34.477C119.807 34.81 119.228 35.276 118.65 35.276H118.393V35.143Z" fill="#7B7D81"/>
<path d="M90.575 32.414C90.751 32.436 90.926 32.373 91.052 32.243C91.177 32.113 91.238 31.931 91.217 31.748C91.238 31.566 91.177 31.384 91.052 31.254C90.926 31.124 90.751 31.061 90.575 31.083C90.22 31.083 89.932 31.381 89.932 31.748C89.932 32.116 90.22 32.414 90.575 32.414ZM93.273 26.557C94.24 26.585 95.156 26.11 95.714 25.292C96.1 24.627 96.164 24.294 96.164 22.497V15.042C96.164 13.245 96.1 12.912 95.714 12.247C95.146 11.438 94.239 10.959 93.273 10.959C92.307 10.959 91.4 11.438 90.832 12.247C90.446 12.912 90.382 13.245 90.382 15.042V22.497C90.382 24.294 90.446 24.627 90.832 25.292C91.39 26.11 92.306 26.585 93.273 26.557ZM92.438 14.177C92.438 13.312 92.695 12.979 93.273 12.979C93.851 12.979 94.108 13.312 94.108 14.177V23.362C94.108 24.227 93.851 24.56 93.273 24.56C92.695 24.56 92.438 24.227 92.438 23.362V14.177ZM119.807 30.883L118.586 32.015C118.586 32.081 118.522 32.081 118.522 32.148C118.646 32.407 118.849 32.618 119.1 32.747C119.164 32.747 119.228 32.747 119.228 32.68L120.449 31.549V31.416C120.449 31.282 119.999 30.817 119.935 30.817L119.807 30.883ZM118.907 26.557C119.879 26.61 120.807 26.13 121.349 25.292C121.734 24.627 121.798 24.294 121.798 22.497V15.042C121.798 13.245 121.734 12.912 121.349 12.247C120.807 11.409 119.879 10.929 118.907 10.982C117.955 10.939 117.051 11.42 116.53 12.247C116.08 12.912 116.016 13.245 116.016 15.042V22.497C116.016 24.294 116.08 24.627 116.53 25.292C117.051 26.119 117.955 26.6 118.907 26.557ZM118.072 14.177C118.072 13.312 118.329 12.979 118.907 12.979C119.485 12.979 119.807 13.312 119.807 14.177V23.362C119.807 24.227 119.485 24.56 118.907 24.56C118.329 24.56 118.072 24.227 118.072 23.362V14.177ZM109.463 26.357H111.519V13.179H114.731V11.248H106.379V13.179H109.463V26.357ZM100.404 26.357H102.46V13.179H105.608V11.248H97.32V13.179H100.404V26.357ZM45.666 30.683C43.803 30.683 42.325 31.815 42.325 33.479C42.228 34.38 42.77 35.222 43.61 35.476H43.675C43.869 35.264 44.021 35.015 44.124 34.744C44.124 34.677 44.124 34.677 44.06 34.61C43.683 34.403 43.457 33.987 43.482 33.545C43.482 32.614 44.381 31.815 45.666 31.815C46.951 31.815 48.365 32.813 48.365 34.411C48.365 36.008 47.594 36.94 46.244 36.94H45.666C45.923 36.674 45.923 36.208 45.923 35.476V32.946C45.923 32.747 45.859 32.68 45.731 32.68H45.024C44.831 32.68 44.767 32.747 44.767 32.946V35.542C44.818 35.968 44.774 36.401 44.638 36.807H43.675C43.546 36.873 43.482 36.873 43.482 36.94C43.482 37.006 43.546 37.472 43.546 37.672C43.546 37.872 43.61 37.872 43.739 37.872H46.437C48.557 37.872 49.65 36.141 49.65 34.278C49.65 32.414 47.979 30.683 45.666 30.683ZM58.644 34.011C58.117 33.635 57.642 33.188 57.231 32.68H57.102C56.909 32.68 56.138 33.146 56.138 33.279C56.138 33.412 56.203 33.812 56.203 34.278C56.191 34.798 56.104 35.314 55.946 35.808C55.689 36.274 55.367 36.74 54.918 36.74C54.468 36.74 54.404 36.407 54.404 35.942C54.404 35.476 54.532 33.745 54.532 33.545C54.532 33.346 54.468 33.279 54.275 33.279H53.569C53.44 33.279 53.376 33.346 53.376 33.545V33.679H53.312C52.959 33.348 52.503 33.159 52.027 33.146C51.441 33.162 50.887 33.429 50.497 33.883C50.108 34.337 49.917 34.937 49.971 35.542C49.971 36.94 50.678 37.805 51.77 37.805C52.452 37.844 53.088 37.449 53.376 36.807H53.44V36.94C53.44 37.472 53.954 37.805 54.597 37.805C55.564 37.732 56.385 37.041 56.652 36.075C56.862 35.613 56.992 35.118 57.038 34.61C57.038 34.477 57.038 34.278 56.974 34.211H57.038L57.873 34.943C58.323 35.276 58.58 35.542 58.58 36.008C58.581 36.214 58.497 36.411 58.351 36.551C58.204 36.69 58.007 36.759 57.809 36.74C57.518 36.703 57.235 36.613 56.974 36.474C56.845 36.474 56.588 37.073 56.588 37.273C56.917 37.642 57.389 37.838 57.873 37.805C59.03 37.805 59.8 37.14 59.8 36.008C59.8 35.172 59.356 34.405 58.644 34.011ZM52.027 36.674C51.513 36.674 51.191 36.208 51.191 35.609C51.156 35.245 51.266 34.881 51.497 34.604C51.728 34.327 52.059 34.161 52.412 34.144C52.774 34.187 53.112 34.35 53.376 34.61C53.376 35.343 52.926 36.674 52.027 36.674ZM78.882 21.232C78.882 22.896 80.231 23.894 81.901 23.894C82.815 23.891 83.7 23.562 84.407 22.963C84.773 23.273 85.186 23.52 85.628 23.695C85.885 23.695 86.334 22.83 86.334 22.63C86.334 22.43 86.27 22.497 86.142 22.43L85.242 21.765C85.439 21.326 85.548 20.85 85.563 20.367C85.622 19.626 85.364 18.896 84.857 18.37C84.664 18.37 83.893 18.769 83.893 18.969C83.892 19.062 83.914 19.154 83.957 19.235C84.124 19.588 84.212 19.974 84.214 20.367C84.225 20.547 84.203 20.727 84.15 20.899C83.46 20.285 82.816 19.617 82.223 18.903H82.351C83.572 18.037 84.343 17.305 84.343 16.107C84.326 15.53 84.085 14.985 83.673 14.596C83.261 14.207 82.714 14.007 82.158 14.044C81.5 14.005 80.857 14.259 80.391 14.742C79.924 15.225 79.679 15.891 79.717 16.573C79.761 17.326 79.982 18.057 80.359 18.703C79.505 19.253 78.956 20.193 78.882 21.232ZM82.094 15.375C82.52 15.375 82.865 15.733 82.865 16.174C82.865 16.773 82.479 17.106 81.516 17.838C81.278 17.412 81.146 16.932 81.13 16.44C81.195 15.841 81.516 15.375 82.094 15.375ZM81.066 19.768C81.733 20.605 82.488 21.364 83.315 22.031C82.914 22.302 82.444 22.441 81.966 22.43C81.066 22.43 80.295 21.964 80.295 21.099C80.361 20.563 80.641 20.08 81.066 19.768ZM68.024 30.817H64.747C64.238 30.76 63.729 30.931 63.349 31.286C62.969 31.642 62.753 32.149 62.756 32.68C62.673 33.496 63.201 34.244 63.977 34.411C64.047 34.411 64.105 34.351 64.105 34.278C64.283 34.041 64.414 33.769 64.49 33.479H64.426C64.1 33.392 63.866 33.096 63.848 32.747C63.847 32.523 63.937 32.309 64.096 32.157C64.255 32.005 64.468 31.929 64.683 31.948H66.161C66.013 32.328 65.947 32.737 65.968 33.146V33.745H65.454C65.326 33.745 65.326 33.812 65.326 33.945V34.743C65.326 34.877 65.39 34.877 65.518 34.877H65.968V35.409C65.968 36.141 65.711 36.873 65.004 36.873C64.298 36.873 64.619 36.674 64.49 36.607L64.298 36.474C64.169 36.474 63.72 37.073 63.72 37.206C63.971 37.691 64.474 37.978 65.004 37.938C66.418 37.938 67.06 36.674 67.06 35.476V34.877H67.767C67.896 34.877 67.96 34.81 67.96 34.743V33.945C67.96 33.835 67.874 33.745 67.767 33.745H67.06V32.88C67.06 32.481 67.125 32.214 67.125 31.948H68.153C68.224 31.948 68.281 31.888 68.281 31.815C68.264 31.545 68.221 31.277 68.153 31.016C68.178 30.972 68.176 30.917 68.149 30.875C68.122 30.832 68.073 30.809 68.024 30.817ZM70.722 22.963H72.586L72.971 26.357H74.898L73.035 11.248H70.401L68.41 26.357H70.401L70.722 22.963ZM71.622 13.977L72.329 20.966H70.979L71.622 13.977ZM66.418 26.357V11.248H64.426V20.101L61.728 11.248H59.929V26.357H61.985V18.437L64.426 26.357H66.418ZM44.767 22.963H46.63L46.951 26.357H48.943L47.08 11.248H44.446L42.454 26.357H44.446L44.767 22.963ZM45.666 13.977L46.373 20.966H45.024L45.666 13.977ZM82.993 31.748C82.973 31.931 83.033 32.113 83.159 32.243C83.284 32.373 83.46 32.436 83.636 32.414C83.991 32.414 84.278 32.116 84.278 31.748C84.278 31.381 83.991 31.083 83.636 31.083C83.46 31.061 83.284 31.124 83.159 31.254C83.033 31.384 82.973 31.566 82.993 31.748ZM52.926 18.437L55.303 26.357H57.359V11.248H55.303V20.101L52.605 11.248H50.87V26.357H52.926V18.437Z" fill="#7B7D81"/>
<path d="M33.588 19.235C32.827 18.666 31.882 18.427 30.954 18.57H30.568V19.036C30.648 20.015 31.058 20.933 31.725 21.631C32.354 22.121 33.123 22.378 33.909 22.364H34.809V21.898C34.732 20.885 34.297 19.937 33.588 19.235ZM32.367 20.966C31.934 20.602 31.657 20.076 31.596 19.502C32.101 19.51 32.593 19.672 33.01 19.968C33.424 20.375 33.695 20.914 33.781 21.498C33.27 21.463 32.78 21.279 32.367 20.966ZM23.758 22.763C23.63 22.696 23.501 22.696 23.437 22.83C23.191 23.328 22.693 23.638 22.152 23.628C21.709 23.639 21.285 23.444 20.996 23.096C20.907 22.967 20.734 22.937 20.61 23.029C20.486 23.121 20.457 23.3 20.546 23.429C20.923 23.951 21.523 24.249 22.152 24.227C22.897 24.243 23.579 23.798 23.887 23.096C23.933 22.967 23.878 22.823 23.758 22.763Z" fill="#7B7D81"/>
<path d="M30.376 27.489C30.276 25.295 29.82 23.135 29.026 21.099C29.107 20.57 29.149 20.037 29.155 19.502C29.155 18.875 29.09 18.25 28.962 17.638C29.711 17.338 30.406 16.911 31.018 16.373H31.147C31.975 16.144 32.715 15.656 33.267 14.976C33.647 14.193 33.738 13.294 33.524 12.446L33.395 12.047H33.01C32.945 12.114 31.532 12.38 30.89 13.445C30.473 14.19 30.358 15.075 30.568 15.907C30.065 16.379 29.475 16.741 28.834 16.972C29.133 16.747 29.375 16.45 29.54 16.107C29.803 15.35 29.78 14.518 29.476 13.778C30.209 12.964 30.621 11.895 30.633 10.782C30.563 8.445 28.714 6.588 26.457 6.589C25.906 6.597 25.362 6.71 24.85 6.922C25.096 6.148 25.226 5.34 25.236 4.526V4.06H23.437C23.516 3.403 23.356 2.738 22.987 2.196C22.144 1.092 20.605 0.885 19.518 1.731C19.202 1.227 18.812 0.777 18.362 0.399L17.912 0L17.462 0.399C17.334 0.466 15.085 2.596 15.149 5.391V5.591C14.288 4.808 13.123 4.488 12.001 4.726C10.411 4.864 8.98 5.778 8.146 7.188C8.082 7.321 8.018 7.388 8.018 7.521C6.026 7.787 5.063 10.25 5.191 11.914C5.188 12.514 5.32 13.107 5.576 13.644H4.741C3.272 13.803 1.928 14.572 1.015 15.774L0.757996 16.107L1.079 16.506C1.335 16.757 1.615 16.98 1.914 17.172C1.542 17.561 1.333 18.088 1.336 18.636C1.319 19.213 1.528 19.772 1.915 20.186C2.303 20.6 2.836 20.833 3.392 20.833H3.521C3.536 21.217 3.601 21.598 3.713 21.964L3.842 22.563H4.42C5.324 22.457 6.198 22.163 6.99 21.698C6.358 23.582 6.033 25.561 6.026 27.555C6.026 30.55 7.44 33.878 9.817 35.343C8.245 36.438 7.343 38.308 7.44 40.268C7.438 40.648 7.717 40.965 8.082 41H8.146C8.328 41.001 8.502 40.922 8.625 40.782C8.747 40.643 8.807 40.456 8.789 40.268C8.699 38.427 9.762 36.735 11.423 36.075C11.423 36.038 11.452 36.008 11.487 36.008H12.515L13.929 35.875C15.014 36.967 16.463 37.587 17.976 37.606C19.539 37.615 21.033 36.938 22.088 35.742C22.648 35.928 23.234 36.018 23.822 36.008H24.658C24.658 35.971 24.686 35.942 24.722 35.942C24.757 35.942 24.786 35.971 24.786 36.008C26.409 36.706 27.436 38.383 27.356 40.201C27.356 40.606 27.672 40.933 28.063 40.933C28.453 40.933 28.769 40.606 28.769 40.201C28.846 38.28 27.975 36.45 26.457 35.343C28.898 33.878 30.376 30.484 30.376 27.489ZM31.661 14.044C31.924 13.682 32.28 13.405 32.688 13.245C32.753 13.664 32.661 14.092 32.432 14.443C32.169 14.805 31.812 15.082 31.404 15.242C31.37 14.825 31.46 14.407 31.661 14.044ZM18.04 29.552C13.841 29.546 10.115 26.758 8.789 22.63H9.431C11.147 22.671 12.84 22.209 14.314 21.299C15.08 20.824 15.81 20.29 16.498 19.701H16.563L16.948 20.101L17.398 19.768C17.668 19.616 17.907 19.413 18.105 19.169C19.843 20.691 21.957 21.682 24.208 22.031C24.647 22.304 25.123 22.506 25.621 22.63H26.007L26.135 22.231H27.356C26.179 26.553 22.376 29.542 18.04 29.552ZM9.239 17.039C9.968 17.274 10.724 17.408 11.487 17.438C12.77 17.432 14.03 17.088 15.149 16.44C15.111 17.166 15.291 17.887 15.663 18.503C15.031 19.086 14.342 19.599 13.607 20.034C12.054 20.965 10.247 21.339 8.468 21.099C8.468 20.833 8.403 20.567 8.403 20.3C8.985 19.322 9.275 18.187 9.239 17.039ZM17.591 10.183H17.655L17.783 10.317C17.815 10.511 17.979 10.652 18.169 10.649H19.711C18.916 10.946 18.224 11.479 17.719 12.18C17.751 11.893 17.751 11.602 17.719 11.315C17.705 10.935 17.662 10.557 17.591 10.183ZM20.16 12.114C20.786 11.974 21.439 12.044 22.024 12.313C21.667 12.923 21.125 13.391 20.482 13.644C19.856 13.794 19.201 13.724 18.619 13.445C18.975 12.835 19.518 12.367 20.16 12.114ZM27.099 17.571C26.341 17.761 25.566 17.873 24.786 17.904L23.437 17.771C24.147 17.619 24.797 17.248 25.3 16.706C25.711 16.26 25.999 15.709 26.135 15.109H26.971C26.661 15.909 26.708 16.81 27.099 17.571ZM22.923 18.237C22.741 18.909 22.719 19.617 22.859 20.3C21.425 19.893 20.104 19.14 19.004 18.104C19.29 17.643 19.466 17.118 19.518 16.573V16.107L20.353 16.839C21.056 17.4 21.836 17.848 22.666 18.17L22.923 18.237ZM23.951 20.567C23.752 20.084 23.664 19.56 23.694 19.036C24.261 19.192 24.76 19.544 25.107 20.034C25.37 20.495 25.462 21.039 25.364 21.565C24.805 21.391 24.311 21.043 23.951 20.567ZM24.658 16.041C24.175 16.54 23.538 16.846 22.859 16.906C22.893 15.888 23.459 14.97 24.336 14.51C24.604 14.71 24.911 14.846 25.236 14.909C25.108 15.318 24.912 15.701 24.658 16.041ZM22.859 14.443C22.229 15.228 21.888 16.218 21.895 17.239C20.953 16.702 20.106 16.005 19.389 15.175H19.903L20.867 15.042C21.761 14.733 22.529 14.124 23.052 13.312L23.501 13.911C23.257 14.046 23.04 14.226 22.859 14.443ZM22.281 10.849C21.738 10.68 21.176 10.591 20.61 10.583C21.221 10.505 21.811 10.301 22.345 9.984C22.294 10.269 22.273 10.559 22.281 10.849ZM27.742 19.502C27.734 19.948 27.691 20.393 27.613 20.833H26.264C26.248 20.362 26.116 19.903 25.878 19.502C25.574 19.062 25.179 18.699 24.722 18.437H24.786C25.738 18.392 26.684 18.258 27.613 18.037C27.685 18.522 27.728 19.011 27.742 19.502ZM28.705 15.774C28.468 16.166 28.135 16.488 27.742 16.706C27.667 16.307 27.689 15.896 27.806 15.508C28.042 15.132 28.376 14.832 28.769 14.643C28.844 15.019 28.822 15.41 28.705 15.774ZM25.493 8.386L25.686 8.187L26.457 8.054C27.189 8.036 27.899 8.32 28.429 8.845C28.959 9.369 29.267 10.09 29.283 10.849C29.283 10.916 29.219 10.982 29.219 11.049C29.031 11.378 28.766 11.653 28.448 11.847C28.638 11.553 28.729 11.202 28.705 10.849C28.738 10.011 28.186 9.269 27.395 9.089C26.604 8.909 25.803 9.342 25.493 10.117C25.296 9.558 25.296 8.945 25.493 8.386ZM27.806 10.849C27.806 11.29 27.461 11.648 27.035 11.648C26.609 11.648 26.264 11.29 26.264 10.849C26.264 10.408 26.609 10.05 27.035 10.05C27.461 10.05 27.806 10.408 27.806 10.849ZM25.3 11.981C25.724 12.52 26.278 12.934 26.906 13.179H27.42C27.663 13.205 27.908 13.159 28.127 13.045C27.659 13.449 27.065 13.662 26.457 13.644H26.264L25.686 13.511L25.107 13.312C24.537 12.98 24.087 12.467 23.822 11.847C23.715 11.548 23.65 11.234 23.63 10.916C23.676 10.202 23.946 9.524 24.401 8.985C24.377 10.059 24.693 11.11 25.3 11.981ZM20.096 2.396C20.34 2.163 20.665 2.043 20.996 2.063C21.468 2.067 21.914 2.287 22.216 2.662C22.518 3.056 22.615 3.579 22.473 4.06C21.896 4.121 21.332 4.279 20.803 4.526C20.653 3.779 20.393 3.061 20.032 2.396H20.096ZM20.803 5.791C21.823 5.211 22.985 4.957 24.144 5.058C24.058 6.402 23.484 7.663 22.538 8.586C21.515 9.297 20.298 9.647 19.068 9.584C20.019 8.541 20.626 7.213 20.803 5.791ZM17.912 1.997C18.788 2.856 19.335 4.014 19.454 5.258C19.374 6.505 18.874 7.683 18.04 8.586C17.178 7.724 16.652 6.563 16.563 5.325C16.498 3.927 17.398 2.662 17.912 1.997ZM16.563 16.307C16.684 15.614 17.023 14.982 17.526 14.51C17.924 15.067 18.128 15.747 18.105 16.44C17.983 17.133 17.644 17.764 17.141 18.237C16.711 17.697 16.503 17.004 16.563 16.307ZM15.727 8.852C16.091 9.67 16.309 10.55 16.37 11.448C16.396 12.556 16.004 13.63 15.278 14.443C14.276 15.479 12.901 16.034 11.487 15.974C10.612 15.966 9.752 15.737 8.982 15.308H8.853C8.383 15.068 7.967 14.728 7.632 14.31L8.596 14.443C10.337 14.366 11.996 13.659 13.286 12.446C14.419 11.519 15.267 10.27 15.727 8.852ZM10.716 11.648C10.716 10.913 11.291 10.317 12.001 10.317C12.538 10.328 13.017 10.667 13.222 11.182L12.708 11.648C12.251 12.054 11.756 12.411 11.23 12.713C11.01 12.552 10.851 12.316 10.78 12.047C10.748 11.916 10.726 11.783 10.716 11.648ZM9.367 7.92C9.963 6.872 11.022 6.199 12.194 6.123C12.982 5.991 13.785 6.236 14.378 6.789L14.764 7.321C14.828 7.521 14.828 7.654 14.892 7.854C14.842 8.815 14.48 9.73 13.864 10.45C13.479 9.759 12.771 9.329 12.001 9.318C10.833 9.351 9.883 10.306 9.817 11.515C9.025 10.5 8.851 9.111 9.367 7.92ZM7.632 9.185C7.659 10.787 8.364 12.296 9.56 13.312C8.794 13.514 7.986 13.468 7.247 13.179L6.797 12.846C6.672 12.529 6.606 12.19 6.604 11.847C6.522 10.842 6.903 9.854 7.632 9.185ZM3.585 19.834H3.392C2.753 19.834 2.236 19.298 2.236 18.636C2.232 18.252 2.429 17.896 2.75 17.705L3.97 18.17C3.752 18.698 3.621 19.261 3.585 19.834ZM3.713 16.906C3.438 16.849 3.176 16.736 2.942 16.573L2.236 16.041C2.917 15.301 3.825 14.83 4.806 14.709C5.338 14.683 5.869 14.798 6.347 15.042L6.926 15.641C6.099 15.916 5.349 16.396 4.741 17.039C4.394 17.049 4.047 17.004 3.713 16.906ZM4.934 20.899V20.5C4.904 19.964 4.948 19.426 5.063 18.903C5.189 18.588 5.363 18.296 5.576 18.037C6.16 17.378 6.964 16.974 7.825 16.906C7.905 17.813 7.703 18.723 7.247 19.502C6.666 20.244 5.843 20.74 4.934 20.899ZM11.873 34.544C9.239 34.144 7.44 30.617 7.44 27.489C7.444 26.302 7.574 25.119 7.825 23.961C9.246 27.453 12.218 30.01 15.792 30.817C16.119 31.66 15.998 32.619 15.47 33.346C14.549 34.357 13.191 34.809 11.873 34.544ZM17.976 36.141C17.053 36.141 16.153 35.838 15.406 35.276C15.849 34.994 16.24 34.633 16.563 34.211C17.267 33.319 17.55 32.147 17.334 31.016H19.068C18.823 32.158 19.082 33.354 19.775 34.278C20.048 34.619 20.374 34.911 20.739 35.143C19.959 35.8 18.981 36.153 17.976 36.141ZM24.465 34.544C23.148 34.785 21.802 34.336 20.867 33.346C20.326 32.571 20.228 31.554 20.61 30.683C24.139 29.792 27.035 27.189 28.384 23.695C28.735 24.928 28.93 26.203 28.962 27.489C28.962 30.617 27.163 34.144 24.465 34.544Z" fill="#7B7D81"/>
<path d="M15.021 23.096C14.732 23.444 14.307 23.639 13.864 23.628C13.324 23.638 12.825 23.328 12.579 22.83C12.515 22.696 12.387 22.696 12.258 22.763C12.139 22.823 12.083 22.967 12.13 23.096C12.438 23.798 13.12 24.243 13.864 24.227C14.493 24.249 15.093 23.951 15.47 23.429C15.559 23.3 15.53 23.121 15.406 23.029C15.282 22.937 15.109 22.967 15.021 23.096ZM19.261 27.222C18.945 27.579 18.507 27.794 18.04 27.821C17.553 27.804 17.091 27.589 16.755 27.222C16.667 27.094 16.494 27.064 16.37 27.156C16.246 27.248 16.217 27.427 16.306 27.555C16.745 28.078 17.372 28.39 18.04 28.42C18.652 28.367 19.224 28.083 19.646 27.622C19.753 27.511 19.753 27.333 19.646 27.222C19.54 27.112 19.367 27.112 19.261 27.222ZM29.476 6.656L29.862 6.922L30.119 6.589C30.796 5.884 31.168 4.922 31.147 3.927C31.082 2.463 29.862 1.464 29.862 1.398L29.476 1.131L29.219 1.464C28.544 2.199 28.175 3.179 28.191 4.193C28.313 5.15 28.77 6.026 29.476 6.656ZM29.605 2.529C29.931 2.93 30.152 3.412 30.247 3.927C30.247 4.503 30.067 5.064 29.733 5.524C29.383 5.139 29.159 4.651 29.091 4.127C29.115 3.555 29.293 3.001 29.605 2.529ZM39.627 3.128C39.499 3.128 36.543 2.662 34.552 4.459C32.56 6.256 32.496 9.252 32.496 9.385V9.784H33.781C35.287 9.835 36.764 9.341 37.957 8.386C39.948 6.656 40.013 3.594 40.013 3.461V3.195L39.627 3.128ZM37.378 7.787C36.094 8.852 34.295 8.919 33.459 8.919C33.588 8.054 33.909 6.256 35.13 5.192C36.255 4.324 37.652 3.92 39.049 4.06C38.934 5.468 38.342 6.788 37.378 7.787Z" fill="#7B7D81"/>
<path d="M152.508 20.966C152.379 20.9 152.251 20.966 152.123 21.099C151.867 21.621 151.337 21.935 150.773 21.898C150.301 21.894 149.855 21.675 149.553 21.299C149.488 21.166 149.296 21.166 149.167 21.299C149.039 21.432 149.039 21.565 149.103 21.698C149.519 22.206 150.13 22.498 150.773 22.497C151.555 22.532 152.284 22.089 152.636 21.365C152.681 21.297 152.692 21.211 152.667 21.133C152.642 21.055 152.583 20.993 152.508 20.966ZM143.321 21.299C143.019 21.675 142.572 21.894 142.1 21.898C141.537 21.935 141.006 21.621 140.751 21.099C140.622 20.966 140.494 20.9 140.365 20.966C140.236 21.051 140.183 21.218 140.237 21.365C140.601 22.077 141.322 22.515 142.1 22.497C142.743 22.498 143.354 22.206 143.77 21.698C143.835 21.565 143.835 21.365 143.706 21.299C143.578 21.232 143.385 21.166 143.321 21.299ZM134.262 27.955L134.583 28.088L134.712 27.755C135.033 27.192 135.103 26.512 134.904 25.891C134.603 25.301 134.099 24.85 133.491 24.627L133.17 24.494L133.041 24.826C132.712 25.387 132.641 26.07 132.849 26.69C133.15 27.28 133.654 27.732 134.262 27.955ZM133.555 25.559C133.839 25.673 134.053 25.92 134.133 26.224C134.248 26.473 134.271 26.757 134.198 27.023C133.929 26.887 133.722 26.648 133.62 26.357C133.536 26.1 133.514 25.826 133.555 25.559Z" fill="#7B7D81"/>
<path d="M159.254 9.25218C159.338 9.05518 159.313 8.82618 159.19 8.65318C159.103 8.45818 158.939 8.31218 158.74 8.25318L140.558 2.86218C140.364 2.81718 140.16 2.84118 139.98 2.92918C139.801 3.03018 139.664 3.19618 139.594 3.39518L138.31 8.25318C135.997 8.98618 134.326 10.1842 134.326 11.8482C134.331 12.6512 134.685 13.4092 135.29 13.9112C134.901 15.0892 134.705 16.3262 134.712 17.5722C134.706 21.3282 136.393 24.8732 139.273 27.1562C138.726 27.5482 138.117 27.8412 137.474 28.0212C136.412 28.3452 135.296 28.4362 134.198 28.2882H134.069C133.587 27.6382 132.865 27.2282 132.078 27.1562C131.286 27.1062 130.506 27.3682 129.893 27.8882L129.572 28.1542L129.829 28.4212C130.365 29.0482 131.089 29.4702 131.885 29.6192H132.142C132.734 29.5952 133.31 29.4112 133.812 29.0862C133.494 29.3192 133.248 29.6432 133.106 30.0182C132.953 30.6582 133.07 31.3362 133.427 31.8822L133.62 32.1482L133.877 32.0152C134.467 31.7782 134.933 31.2952 135.161 30.6842C135.288 30.1452 135.22 29.5762 134.969 29.0862H136.061C135.718 29.5422 135.537 30.1062 135.547 30.6842C135.651 31.3272 135.998 31.9022 136.511 32.2812L136.768 32.4812L137.025 32.2142C137.419 31.7332 137.625 31.1152 137.603 30.4842C137.518 29.9182 137.245 29.4002 136.832 29.0202L137.667 28.7532L138.181 28.6202C137.988 29.1342 137.988 29.7042 138.181 30.2182C138.44 30.8022 138.933 31.2402 139.53 31.4162L139.851 31.5492L139.98 31.2162C140.239 30.6312 140.284 29.9692 140.108 29.3522C139.864 28.8452 139.454 28.4452 138.952 28.2212L139.723 27.8222C139.723 27.7552 139.787 27.7552 139.851 27.6882C140.631 28.2372 141.472 28.6842 142.357 29.0202C142.752 30.3922 142.381 31.8782 141.393 32.8802H141.201L138.823 33.2132C138.631 33.2132 138.502 33.4132 138.438 33.6122V33.7452C136.304 34.8162 134.972 37.0812 135.033 39.5362C135.015 39.7412 135.081 39.9452 135.216 40.0972C135.35 40.2492 135.541 40.3352 135.74 40.3352H135.804C136.191 40.2732 136.485 39.9412 136.511 39.5362C136.42 38.0282 137.073 36.5752 138.245 35.6752L137.796 39.6692C137.796 39.9352 137.988 40.2012 138.181 40.2012C138.303 40.2462 138.438 40.2252 138.541 40.1452C138.645 40.0642 138.702 39.9362 138.695 39.8022L139.337 34.0782L140.879 33.8122L141.715 38.8702C141.782 39.0792 141.955 39.2322 142.164 39.2702H150.388C150.613 39.2722 150.805 39.1012 150.838 38.8702L151.673 33.8122L153.279 34.0782L153.857 39.8022C153.889 40.0332 154.082 40.2042 154.307 40.2012H154.371C154.628 40.2012 154.757 39.9352 154.757 39.6692L154.307 35.6752C155.485 36.5762 156.158 38.0202 156.106 39.5362C156.042 39.9352 156.363 40.2682 156.812 40.3352C157.225 40.3032 157.553 39.9632 157.583 39.5362C157.616 37.0702 156.262 34.8092 154.114 33.7452V33.6122C154.114 33.3922 153.942 33.2132 153.729 33.2132L151.416 32.8802H151.159C150.195 31.9192 149.803 30.4962 150.131 29.1532C154.902 27.4912 158.111 22.8532 158.097 17.6382C158.086 16.6312 157.978 15.6282 157.776 14.6432L159.254 9.25218ZM131.949 28.8202C131.514 28.7462 131.111 28.5372 130.793 28.2212C131.17 28.0242 131.591 27.9322 132.013 27.9552C132.437 28.0242 132.836 28.2072 133.17 28.4872C132.805 28.7242 132.379 28.8402 131.949 28.8202ZM134.39 30.4172C134.311 30.6822 134.154 30.9152 133.941 31.0832C133.857 30.8262 133.835 30.5522 133.877 30.2842C133.973 30.0472 134.128 29.8412 134.326 29.6852C134.414 29.9182 134.436 30.1722 134.39 30.4172ZM136.832 30.4842C136.871 30.7452 136.801 31.0112 136.639 31.2162C136.481 31.0252 136.37 30.7962 136.318 30.5502C136.314 30.2712 136.38 29.9962 136.511 29.7522C136.682 29.9602 136.793 30.2142 136.832 30.4842ZM139.402 29.6192C139.467 29.8812 139.467 30.1552 139.402 30.4172C139.184 30.2662 139.007 30.0602 138.888 29.8182C138.794 29.5612 138.794 29.2772 138.888 29.0202C139.105 29.1712 139.282 29.3772 139.402 29.6192ZM135.804 11.8482C135.804 11.1822 136.896 10.2502 138.823 9.65118L150.966 13.2452C149.617 14.1112 147.176 14.7762 143.963 14.7762C138.888 14.7762 135.804 13.1122 135.804 11.8482ZM136.189 17.5722C136.191 16.6262 136.321 15.6852 136.575 14.7762C138.438 15.7752 141.265 16.3072 143.963 16.3072H145.248C143.513 17.8382 140.751 19.1692 136.254 19.0362C136.197 18.5502 136.176 18.0612 136.189 17.5722ZM150.645 34.6112L150.002 38.2712H142.55L141.907 34.5442C143.019 35.8832 144.635 36.6602 146.34 36.6742C148.004 36.7012 149.588 35.9422 150.645 34.6112ZM143.963 29.4192C144.764 29.6102 145.583 29.6992 146.405 29.6852C147.116 29.6852 147.825 29.6182 148.525 29.4862C148.395 30.9012 148.811 32.3132 149.681 33.4132C148.899 34.5102 147.657 35.1542 146.34 35.1432C144.981 35.1182 143.706 34.4572 142.871 33.3462C143.695 32.2242 144.084 30.8232 143.963 29.4192ZM146.405 28.1542C144.701 28.1612 143.022 27.7272 141.522 26.8902C142.681 26.4872 143.925 26.4182 145.12 26.6902H145.184C145.545 26.8782 145.938 26.9922 146.34 27.0232C147.009 26.9932 147.636 26.6802 148.075 26.1582C148.203 26.0252 148.139 25.8912 148.011 25.7582C147.882 25.6252 147.754 25.6922 147.625 25.7582C147.305 26.1552 146.839 26.3972 146.34 26.4242C146.025 26.4062 145.718 26.3152 145.441 26.1582C145.441 26.0472 145.355 25.9582 145.248 25.9582L144.991 25.7582C144.927 25.6252 144.734 25.6252 144.606 25.6922L144.477 25.8912C143.421 25.7752 142.353 25.8652 141.329 26.1582L140.751 26.3572C138.742 24.9702 137.264 22.8982 136.575 20.5002H136.96C142.164 20.5002 145.184 18.5702 146.983 16.5732C147.924 17.7252 149.055 18.6942 150.324 19.4352C151.895 20.4032 153.7 20.8882 155.528 20.8332H156.17C154.783 25.2022 150.844 28.1552 146.405 28.1542ZM156.491 19.2362C154.622 19.4712 152.729 19.0742 151.095 18.1042C150.051 17.5262 149.116 16.7592 148.332 15.8412C149.943 15.5792 151.454 14.8662 152.701 13.7782L156.299 14.8432C156.504 15.7372 156.612 16.6522 156.62 17.5722C156.644 18.1302 156.601 18.6892 156.491 19.2362ZM156.556 13.3122L139.787 8.32018L140.815 4.52618L157.648 9.51818L156.556 13.3122Z" fill="#7B7D81"/>
<path d="M121.798 35.409H121.67C121.412 36.201 120.676 36.718 119.871 36.674C119.338 36.721 118.822 36.467 118.522 36.008H118.843C119.871 36.008 120.77 35.542 120.77 34.411C120.771 34.028 120.62 33.662 120.353 33.398C120.086 33.134 119.726 32.995 119.357 33.013C118.783 33.03 118.24 33.287 117.853 33.726C117.465 34.166 117.266 34.749 117.301 35.343V35.675C117.108 36.008 116.916 36.208 116.594 36.208C116.273 36.208 115.823 35.542 115.631 35.209H115.438C115.181 35.209 114.603 35.609 114.603 35.875C114.675 36.2 114.831 36.499 115.052 36.74C115.195 37.098 115.261 37.485 115.245 37.872C115.245 38.604 114.988 39.203 114.603 39.203C114.217 39.203 114.025 38.604 114.025 37.672V34.743C115.438 34.278 116.53 33.279 116.53 32.148C116.532 31.735 116.365 31.341 116.072 31.062C115.778 30.783 115.385 30.646 114.988 30.683C113.575 30.683 112.868 32.148 112.868 33.878V35.476C112.675 36.075 112.29 36.674 111.776 36.674C111.262 36.674 111.262 36.341 111.262 35.875C111.262 35.409 111.39 33.679 111.39 33.479C111.39 33.279 111.326 33.213 111.198 33.213H110.427C110.298 33.213 110.234 33.279 110.234 33.479V33.612H110.17C109.827 33.264 109.365 33.072 108.885 33.08C108.299 33.095 107.745 33.362 107.356 33.816C106.966 34.27 106.775 34.871 106.829 35.476V35.808C106.544 36.414 105.936 36.781 105.287 36.74C104.914 36.799 104.536 36.685 104.251 36.429C103.967 36.172 103.805 35.8 103.809 35.409C103.809 34.61 104.195 34.144 104.709 34.144C105.005 34.143 105.254 34.372 105.287 34.677C105.287 34.743 105.351 34.743 105.415 34.743C105.48 34.743 106.251 34.477 106.251 34.344C106.15 33.561 105.468 33.001 104.709 33.08C104.118 33.096 103.559 33.361 103.159 33.813C102.759 34.264 102.554 34.864 102.589 35.476C102.579 35.591 102.601 35.706 102.653 35.808C102.396 36.274 102.01 36.674 101.689 36.674C101.368 36.674 101.175 36.407 101.175 35.875C101.175 35.343 101.239 34.743 101.239 34.411C101.26 34.04 101.123 33.678 100.863 33.421C100.603 33.165 100.247 33.04 99.89 33.08C99.15 33.08 98.476 33.52 98.156 34.211C98.156 34.011 98.22 33.612 98.22 33.479C98.22 33.346 98.156 33.213 97.963 33.213H97.256C97.114 33.213 96.999 33.332 96.999 33.479V35.542C96.719 36.308 95.989 36.794 95.2 36.74C94.684 36.793 94.185 36.534 93.915 36.075H94.237C95.265 36.075 96.164 35.609 96.164 34.477C96.147 34.089 95.982 33.723 95.705 33.461C95.428 33.199 95.061 33.061 94.686 33.08C94.112 33.096 93.569 33.354 93.182 33.793C92.794 34.232 92.595 34.815 92.63 35.409C92.621 35.546 92.643 35.682 92.695 35.808C92.438 36.208 92.116 36.674 91.667 36.674C91.217 36.674 91.153 36.341 91.153 35.808V33.479C91.153 33.279 91.089 33.213 90.96 33.213H90.189C90.047 33.213 89.932 33.332 89.932 33.479V35.542C89.644 36.271 88.957 36.745 88.197 36.74C87.362 36.74 86.848 36.141 86.848 35.143V34.743C88.133 34.344 89.354 33.346 89.354 32.148C89.356 31.735 89.189 31.341 88.896 31.062C88.602 30.783 88.209 30.646 87.812 30.683C86.399 30.683 85.692 32.148 85.692 33.945V35.209C85.692 35.409 85.756 35.609 85.756 35.808C85.756 36.008 85.178 36.674 84.792 36.674C84.407 36.674 84.214 36.341 84.214 35.808C84.214 35.276 84.278 34.011 84.278 33.479C84.278 33.332 84.163 33.213 84.021 33.213H83.25C83.122 33.213 83.058 33.346 83.058 33.479V35.542C82.865 36.008 82.415 36.674 81.966 36.674C81.516 36.674 81.452 36.341 81.452 35.942C81.452 35.542 81.516 34.677 81.516 34.344C81.499 33.991 81.348 33.659 81.094 33.422C80.841 33.185 80.508 33.061 80.167 33.08C79.396 33.104 78.714 33.601 78.432 34.344V34.211C78.432 33.586 77.943 33.08 77.34 33.08C76.618 33.09 75.968 33.531 75.669 34.211C75.669 34.011 75.734 33.612 75.734 33.479C75.734 33.332 75.619 33.213 75.477 33.213H74.77C74.628 33.213 74.513 33.332 74.513 33.479V35.542C74.32 36.075 73.935 36.674 73.421 36.674C72.907 36.674 72.971 36.341 72.971 35.875C72.971 35.409 73.035 33.679 73.035 33.479C73.035 33.279 72.971 33.213 72.843 33.213H72.072C71.943 33.213 71.879 33.279 71.879 33.479V33.612H71.815C71.472 33.264 71.009 33.072 70.53 33.08C69.944 33.095 69.39 33.362 69 33.816C68.611 34.27 68.42 34.871 68.474 35.476C68.474 36.873 69.18 37.739 70.337 37.739C71.015 37.76 71.642 37.37 71.943 36.74V36.873C71.943 37.406 72.457 37.739 73.164 37.739C73.674 37.739 74.161 37.522 74.513 37.14V37.406C74.513 37.553 74.628 37.672 74.77 37.672H75.477C75.619 37.672 75.734 37.553 75.734 37.406V36.94C75.734 36.008 76.119 34.144 76.954 34.144C77.79 34.144 77.468 34.411 77.468 34.877V37.406C77.468 37.539 77.533 37.672 77.661 37.672H78.368C78.56 37.672 78.625 37.539 78.625 37.339C78.625 35.476 79.139 34.144 79.781 34.144C80.424 34.144 80.295 34.411 80.295 34.877C80.295 35.343 80.231 35.808 80.231 36.341C80.23 36.723 80.381 37.089 80.648 37.354C80.916 37.618 81.275 37.757 81.644 37.739C82.249 37.729 82.816 37.435 83.186 36.94C83.419 37.451 83.926 37.766 84.471 37.739C85.144 37.74 85.772 37.39 86.142 36.807C86.564 37.432 87.27 37.784 88.005 37.739C88.796 37.763 89.562 37.45 90.125 36.873C90.303 37.439 90.838 37.799 91.41 37.739C92.077 37.718 92.696 37.373 93.08 36.807C93.552 37.443 94.299 37.793 95.072 37.739C95.771 37.766 96.456 37.529 96.999 37.073V37.339C96.996 37.5 97.104 37.64 97.256 37.672H97.963C98.156 37.672 98.22 37.539 98.22 37.339V37.073C98.22 35.875 98.67 34.144 99.441 34.144C100.212 34.144 100.019 34.477 100.019 34.877C100.019 35.276 99.955 35.808 99.955 36.341C99.954 36.723 100.105 37.089 100.372 37.354C100.639 37.618 100.999 37.757 101.368 37.739C102.028 37.757 102.644 37.399 102.974 36.807C103.459 37.425 104.197 37.77 104.966 37.739C105.778 37.774 106.568 37.461 107.15 36.873C107.454 37.419 108.02 37.75 108.628 37.739C109.31 37.777 109.946 37.382 110.234 36.74H110.298V36.873C110.298 37.406 110.812 37.739 111.455 37.739C111.985 37.749 112.497 37.532 112.868 37.14V37.739C112.868 39.269 113.382 40.268 114.474 40.268C115.566 40.268 116.209 39.203 116.209 38.005C116.226 37.759 116.204 37.512 116.145 37.273H116.53C116.97 37.267 117.388 37.074 117.687 36.74C118.127 37.423 118.889 37.805 119.678 37.739C120.89 37.858 122.017 37.08 122.377 35.875V35.742C122.203 35.598 122.008 35.486 121.798 35.409ZM114.988 31.682C115.113 31.658 115.242 31.699 115.332 31.792C115.422 31.885 115.461 32.018 115.438 32.148C115.438 32.747 114.795 33.412 114.025 33.745C114.089 32.547 114.41 31.682 114.988 31.682ZM87.812 31.682C87.937 31.658 88.065 31.699 88.155 31.792C88.245 31.885 88.285 32.018 88.262 32.148C88.262 32.88 87.426 33.479 86.848 33.745C86.913 32.747 87.169 31.682 87.812 31.682ZM70.53 36.674C70.023 36.605 69.656 36.137 69.694 35.609C69.659 35.245 69.769 34.881 70 34.604C70.231 34.327 70.562 34.161 70.915 34.144C71.28 34.176 71.621 34.342 71.879 34.61C71.879 35.343 71.429 36.674 70.53 36.674ZM93.723 35.143C93.705 34.86 93.797 34.582 93.978 34.37C94.158 34.157 94.414 34.028 94.686 34.011C95.008 34.011 95.2 34.144 95.2 34.477C95.2 34.81 94.622 35.276 94.044 35.276H93.723V35.143ZM108.885 36.674C108.378 36.605 108.011 36.137 108.05 35.609C108.014 35.245 108.125 34.881 108.355 34.604C108.586 34.327 108.917 34.161 109.27 34.144C109.635 34.176 109.976 34.342 110.234 34.61C110.234 35.343 109.784 36.674 108.885 36.674ZM118.393 35.143C118.355 34.578 118.75 34.081 119.293 34.011C119.614 34.011 119.807 34.144 119.807 34.477C119.807 34.81 119.228 35.276 118.65 35.276H118.393V35.143Z" fill="#7B7D81"/>
<path d="M90.575 32.414C90.751 32.436 90.926 32.373 91.052 32.243C91.177 32.113 91.238 31.931 91.217 31.748C91.238 31.566 91.177 31.384 91.052 31.254C90.926 31.124 90.751 31.061 90.575 31.083C90.22 31.083 89.932 31.381 89.932 31.748C89.932 32.116 90.22 32.414 90.575 32.414ZM93.273 26.557C94.24 26.585 95.156 26.11 95.714 25.292C96.1 24.627 96.164 24.294 96.164 22.497V15.042C96.164 13.245 96.1 12.912 95.714 12.247C95.146 11.438 94.239 10.959 93.273 10.959C92.307 10.959 91.4 11.438 90.832 12.247C90.446 12.912 90.382 13.245 90.382 15.042V22.497C90.382 24.294 90.446 24.627 90.832 25.292C91.39 26.11 92.306 26.585 93.273 26.557ZM92.438 14.177C92.438 13.312 92.695 12.979 93.273 12.979C93.851 12.979 94.108 13.312 94.108 14.177V23.362C94.108 24.227 93.851 24.56 93.273 24.56C92.695 24.56 92.438 24.227 92.438 23.362V14.177ZM119.807 30.883L118.586 32.015C118.586 32.081 118.522 32.081 118.522 32.148C118.646 32.407 118.849 32.618 119.1 32.747C119.164 32.747 119.228 32.747 119.228 32.68L120.449 31.549V31.416C120.449 31.282 119.999 30.817 119.935 30.817L119.807 30.883ZM118.907 26.557C119.879 26.61 120.807 26.13 121.349 25.292C121.734 24.627 121.798 24.294 121.798 22.497V15.042C121.798 13.245 121.734 12.912 121.349 12.247C120.807 11.409 119.879 10.929 118.907 10.982C117.955 10.939 117.051 11.42 116.53 12.247C116.08 12.912 116.016 13.245 116.016 15.042V22.497C116.016 24.294 116.08 24.627 116.53 25.292C117.051 26.119 117.955 26.6 118.907 26.557ZM118.072 14.177C118.072 13.312 118.329 12.979 118.907 12.979C119.485 12.979 119.807 13.312 119.807 14.177V23.362C119.807 24.227 119.485 24.56 118.907 24.56C118.329 24.56 118.072 24.227 118.072 23.362V14.177ZM109.463 26.357H111.519V13.179H114.731V11.248H106.379V13.179H109.463V26.357ZM100.404 26.357H102.46V13.179H105.608V11.248H97.32V13.179H100.404V26.357ZM45.666 30.683C43.803 30.683 42.325 31.815 42.325 33.479C42.228 34.38 42.77 35.222 43.61 35.476H43.675C43.869 35.264 44.021 35.015 44.124 34.744C44.124 34.677 44.124 34.677 44.06 34.61C43.683 34.403 43.457 33.987 43.482 33.545C43.482 32.614 44.381 31.815 45.666 31.815C46.951 31.815 48.365 32.813 48.365 34.411C48.365 36.008 47.594 36.94 46.244 36.94H45.666C45.923 36.674 45.923 36.208 45.923 35.476V32.946C45.923 32.747 45.859 32.68 45.731 32.68H45.024C44.831 32.68 44.767 32.747 44.767 32.946V35.542C44.818 35.968 44.774 36.401 44.638 36.807H43.675C43.546 36.873 43.482 36.873 43.482 36.94C43.482 37.006 43.546 37.472 43.546 37.672C43.546 37.872 43.61 37.872 43.739 37.872H46.437C48.557 37.872 49.65 36.141 49.65 34.278C49.65 32.414 47.979 30.683 45.666 30.683ZM58.644 34.011C58.117 33.635 57.642 33.188 57.231 32.68H57.102C56.909 32.68 56.138 33.146 56.138 33.279C56.138 33.412 56.203 33.812 56.203 34.278C56.191 34.798 56.104 35.314 55.946 35.808C55.689 36.274 55.367 36.74 54.918 36.74C54.468 36.74 54.404 36.407 54.404 35.942C54.404 35.476 54.532 33.745 54.532 33.545C54.532 33.346 54.468 33.279 54.275 33.279H53.569C53.44 33.279 53.376 33.346 53.376 33.545V33.679H53.312C52.959 33.348 52.503 33.159 52.027 33.146C51.441 33.162 50.887 33.429 50.497 33.883C50.108 34.337 49.917 34.937 49.971 35.542C49.971 36.94 50.678 37.805 51.77 37.805C52.452 37.844 53.088 37.449 53.376 36.807H53.44V36.94C53.44 37.472 53.954 37.805 54.597 37.805C55.564 37.732 56.385 37.041 56.652 36.075C56.862 35.613 56.992 35.118 57.038 34.61C57.038 34.477 57.038 34.278 56.974 34.211H57.038L57.873 34.943C58.323 35.276 58.58 35.542 58.58 36.008C58.581 36.214 58.497 36.411 58.351 36.551C58.204 36.69 58.007 36.759 57.809 36.74C57.518 36.703 57.235 36.613 56.974 36.474C56.845 36.474 56.588 37.073 56.588 37.273C56.917 37.642 57.389 37.838 57.873 37.805C59.03 37.805 59.8 37.14 59.8 36.008C59.8 35.172 59.356 34.405 58.644 34.011ZM52.027 36.674C51.513 36.674 51.191 36.208 51.191 35.609C51.156 35.245 51.266 34.881 51.497 34.604C51.728 34.327 52.059 34.161 52.412 34.144C52.774 34.187 53.112 34.35 53.376 34.61C53.376 35.343 52.926 36.674 52.027 36.674ZM78.882 21.232C78.882 22.896 80.231 23.894 81.901 23.894C82.815 23.891 83.7 23.562 84.407 22.963C84.773 23.273 85.186 23.52 85.628 23.695C85.885 23.695 86.334 22.83 86.334 22.63C86.334 22.43 86.27 22.497 86.142 22.43L85.242 21.765C85.439 21.326 85.548 20.85 85.563 20.367C85.622 19.626 85.364 18.896 84.857 18.37C84.664 18.37 83.893 18.769 83.893 18.969C83.892 19.062 83.914 19.154 83.957 19.235C84.124 19.588 84.212 19.974 84.214 20.367C84.225 20.547 84.203 20.727 84.15 20.899C83.46 20.285 82.816 19.617 82.223 18.903H82.351C83.572 18.037 84.343 17.305 84.343 16.107C84.326 15.53 84.085 14.985 83.673 14.596C83.261 14.207 82.714 14.007 82.158 14.044C81.5 14.005 80.857 14.259 80.391 14.742C79.924 15.225 79.679 15.891 79.717 16.573C79.761 17.326 79.982 18.057 80.359 18.703C79.505 19.253 78.956 20.193 78.882 21.232ZM82.094 15.375C82.52 15.375 82.865 15.733 82.865 16.174C82.865 16.773 82.479 17.106 81.516 17.838C81.278 17.412 81.146 16.932 81.13 16.44C81.195 15.841 81.516 15.375 82.094 15.375ZM81.066 19.768C81.733 20.605 82.488 21.364 83.315 22.031C82.914 22.302 82.444 22.441 81.966 22.43C81.066 22.43 80.295 21.964 80.295 21.099C80.361 20.563 80.641 20.08 81.066 19.768ZM68.024 30.817H64.747C64.238 30.76 63.729 30.931 63.349 31.286C62.969 31.642 62.753 32.149 62.756 32.68C62.673 33.496 63.201 34.244 63.977 34.411C64.047 34.411 64.105 34.351 64.105 34.278C64.283 34.041 64.414 33.769 64.49 33.479H64.426C64.1 33.392 63.866 33.096 63.848 32.747C63.847 32.523 63.937 32.309 64.096 32.157C64.255 32.005 64.468 31.929 64.683 31.948H66.161C66.013 32.328 65.947 32.737 65.968 33.146V33.745H65.454C65.326 33.745 65.326 33.812 65.326 33.945V34.743C65.326 34.877 65.39 34.877 65.518 34.877H65.968V35.409C65.968 36.141 65.711 36.873 65.004 36.873C64.298 36.873 64.619 36.674 64.49 36.607L64.298 36.474C64.169 36.474 63.72 37.073 63.72 37.206C63.971 37.691 64.474 37.978 65.004 37.938C66.418 37.938 67.06 36.674 67.06 35.476V34.877H67.767C67.896 34.877 67.96 34.81 67.96 34.743V33.945C67.96 33.835 67.874 33.745 67.767 33.745H67.06V32.88C67.06 32.481 67.125 32.214 67.125 31.948H68.153C68.224 31.948 68.281 31.888 68.281 31.815C68.264 31.545 68.221 31.277 68.153 31.016C68.178 30.972 68.176 30.917 68.149 30.875C68.122 30.832 68.073 30.809 68.024 30.817ZM70.722 22.963H72.586L72.971 26.357H74.898L73.035 11.248H70.401L68.41 26.357H70.401L70.722 22.963ZM71.622 13.977L72.329 20.966H70.979L71.622 13.977ZM66.418 26.357V11.248H64.426V20.101L61.728 11.248H59.929V26.357H61.985V18.437L64.426 26.357H66.418ZM44.767 22.963H46.63L46.951 26.357H48.943L47.08 11.248H44.446L42.454 26.357H44.446L44.767 22.963ZM45.666 13.977L46.373 20.966H45.024L45.666 13.977ZM82.993 31.748C82.973 31.931 83.033 32.113 83.159 32.243C83.284 32.373 83.46 32.436 83.636 32.414C83.991 32.414 84.278 32.116 84.278 31.748C84.278 31.381 83.991 31.083 83.636 31.083C83.46 31.061 83.284 31.124 83.159 31.254C83.033 31.384 82.973 31.566 82.993 31.748ZM52.926 18.437L55.303 26.357H57.359V11.248H55.303V20.101L52.605 11.248H50.87V26.357H52.926V18.437Z" fill="#7B7D81"/>
</svg>
