<svg width="119" height="471" viewBox="0 0 119 471" fill="none" xmlns="http://www.w3.org/2000/svg">
<path d="M0 26.288C6.444 34.1 10.329 44.101 14.973 52.961C20.469 63.344 25.208 74.203 31.273 84.396C35.158 91.064 39.801 97.065 43.782 103.542C46.625 108.21 49.847 111.353 53.827 114.973C59.228 119.927 65.293 124.785 70.411 130.405C70.221 124.118 70.032 117.831 69.937 111.544H70.221C73.538 111.544 76.191 110.973 76.191 110.21C76.191 109.448 73.538 108.877 70.221 108.877H69.937C69.842 101.637 69.842 94.398 70.032 87.253L70.316 76.203H72.875C78.56 76.203 83.109 75.632 83.109 74.965C83.109 74.298 78.56 73.632 72.875 73.632H70.411C70.79 58.486 71.169 43.34 70.79 27.908C70.032 26.098 69.179 24.288 68.326 22.383C65.293 16.096 58.47 8.18896 54.585 0.282959H59.892C62.829 5.90296 65.957 13.714 70.505 19.525C70.316 13.333 70.126 6.76096 70.126 0.282959H89.553L89.269 10.952H87.374C81.688 10.952 77.139 11.523 77.139 12.285C77.139 13.048 81.688 13.619 87.374 13.619H89.174V18.477H87.374C84.057 18.477 81.403 19.049 81.403 19.811C81.403 20.573 84.057 21.144 87.374 21.144H89.174C89.269 22.764 89.269 24.288 89.269 25.812C89.553 32.575 89.838 39.243 89.932 45.816C92.775 42.863 95.429 39.72 98.177 36.767V45.816C94.765 50.865 92.112 57.057 89.743 63.058C89.648 64.677 89.553 66.201 89.364 67.821C87.658 90.016 88.321 113.068 88.701 135.835H87.374C84.91 135.835 82.92 136.216 82.92 136.787C82.92 137.359 84.91 137.74 87.374 137.74H88.701C88.89 149.266 88.985 160.697 88.606 171.937C88.226 183.178 88.037 192.799 87.942 203.086C86.595 202.875 85.231 202.78 83.867 202.801C80.835 202.801 78.371 203.182 78.371 203.754C78.371 204.325 80.835 204.706 83.867 204.706C85.2 204.731 86.532 204.635 87.848 204.42C87.848 208.421 87.753 212.422 87.753 216.423C88.609 214.853 89.592 213.355 90.691 211.946C96.187 204.611 98.651 195.561 104.621 188.512C107.938 184.511 112.297 180.606 112.297 175.367C112.486 182.035 109.265 188.226 106.232 194.037C100.546 204.801 92.965 215.756 90.027 227.568C88.795 232.807 88.511 238.904 87.848 244.714C88.037 255.097 88.416 265.48 89.079 275.959C89.174 279.102 89.364 282.246 89.459 285.295C87.468 285.295 85.858 285.676 85.858 286.057C85.858 286.438 87.468 286.819 89.459 286.819C89.932 301.106 89.838 315.586 89.743 329.97L91.543 327.494C95.902 321.778 101.21 316.921 105.663 311.393C111.544 304.139 115.868 295.739 118.362 286.722C114.098 306.726 102.252 323.97 89.838 340.257C89.932 359.596 90.785 379.122 90.122 398.366C89.459 422.465 88.226 446.566 87.468 470.57H69.368C69.463 465.902 69.463 461.234 69.652 456.664C70.032 441.898 70.032 426.751 70.032 411.986C70.032 399.412 70.126 386.744 70.221 374.17C73.538 374.17 76.191 373.597 76.191 372.835C76.191 372.073 73.538 371.502 70.221 371.502C70.316 359.785 70.411 348.069 70.411 336.352V329.303C71.673 329.665 72.984 329.824 74.296 329.778C76.76 329.778 78.75 329.303 78.75 328.827C78.75 328.351 76.76 327.875 74.296 327.875C72.985 327.835 71.674 327.994 70.411 328.351V326.159H72.78C76.097 326.159 78.75 325.589 78.75 324.827C78.75 324.064 76.097 323.491 72.78 323.491L70.505 323.683C70.6 315.11 70.79 306.631 70.979 298.155C72.673 298.639 74.431 298.863 76.191 298.82C79.508 298.82 82.256 298.249 82.256 297.487C82.256 296.725 79.508 296.152 76.191 296.152C74.461 296.101 72.733 296.325 71.074 296.82C71.453 280.913 71.927 265.004 71.927 249.001V232.045C73.538 231.759 74.486 231.378 74.486 230.902C74.486 230.426 73.538 230.044 71.927 229.854V222.234H73.064C76.097 222.234 78.56 221.948 78.56 221.567C78.56 221.186 76.097 220.9 73.064 220.9H71.927C71.927 202.134 71.927 183.368 71.548 164.507L70.979 147.456C69.709 144.704 68.119 142.115 66.241 139.74C62.356 134.691 58.186 129.929 54.774 124.785C49.562 116.878 43.497 110.496 37.811 103.161C32.125 95.827 28.998 89.254 25.018 81.633C20.185 72.203 14.783 63.629 11.467 53.341C8.15 43.054 3.412 35.528 0 26.288Z" fill="#E7E6E6"/>
</svg>
