<?xml version="1.0" encoding="utf-8"?>
<!-- Generator: Adobe Illustrator 23.0.3, SVG Export Plug-In . SVG Version: 6.00 Build 0)  -->
<svg version="1.1" id="Layer_1" xmlns="http://www.w3.org/2000/svg" xmlns:xlink="http://www.w3.org/1999/xlink" x="0px" y="0px"
	 viewBox="0 0 52.7 157.6" style="enable-background:new 0 0 52.7 157.6;" xml:space="preserve">
<style type="text/css">
	.st0{clip-path:url(#SVGID_2_);}
	.st1{fill:#E7E6E6;}
	.st2{fill:#F2F2F2;}
</style>
<g>
	<g>
		<defs>
			<rect id="SVGID_1_" y="0.1" width="52.7" height="157.4"/>
		</defs>
		<clipPath id="SVGID_2_">
			<use xlink:href="#SVGID_1_"  style="overflow:visible;"/>
		</clipPath>
		<g class="st0">
			<path class="st1" d="M29.2,156.2c0-9.8,1.3-19.9,1.6-23.9c-1.7-3.3-4-6.5-3.8-10.1l4.1,5.3c0.3-5,0.6-10,0.7-15h1
				c1.4,0,2.5-0.2,2.5-0.4c0-0.2-1.1-0.4-2.5-0.4h-1c0.1-3.1,0.2-6.2,0.2-9.3c0-7-0.1-14.1-0.2-21.1h0.9c1.5,0,2.6-0.2,2.6-0.5
				s-1.2-0.5-2.6-0.5h-0.9c0-5.9,0-11.7,0.2-17.6c0.3-8.1,0.7-16.3,0.5-24.4c-0.1,0.5-0.1,1-0.2,1.6c0.4-6.5-4.1-12.3-9.2-16.3
				s-11-7.1-15.3-11.9c0,0-5.5-7.2-6.4-10.9C0.4-2.8,4,6.5,12.3,14.3c3.6,2.6,8,3.9,11.6,6.5s5.9,6,8.1,9.6
				C31.6,25,31.3,19.5,31.5,14c0.1-4,0.2-8,0.4-12h10c-0.2,5.5-0.8,11-0.7,16.5c0.2,4.6,0.7,9.1,0.7,13.7c0,4.1-0.1,8.1-0.2,12.2
				c-1.2,0.1-2.2,0.3-2.2,0.6s0.9,0.5,2.1,0.6l-0.1,2.9h-0.8c-1.6,0-2.9,0.3-2.9,0.6s1.3,0.6,2.9,0.6h0.8c-0.1,2.9-0.2,5.7-0.4,8.6
				l11.6-13v2.9c-3.7,5.1-7.6,10.1-11.8,14.9c-0.1,1.1-0.1,2.1-0.1,3.1c-0.2,5.9,0.2,11.6,0.1,17.6c0,6.7-1.2,13.4-1,20.1
				c0.1,3.6,0.1,7.1,0,10.7h-0.1c-2.8,0-4.9,0.3-4.9,0.6c0,0.4,2.2,0.6,4.9,0.6h0.1c-0.2,9.3-0.8,18.6-0.7,27.9
				c0.1,3.9,0.6,9.5,0.9,12.9C40.2,158.3,29.2,157.5,29.2,156.2"/>
			<path class="st2" d="M34.8,146.8c1.8,0.2,1.6-7.9,0.1-8.4S33,146.6,34.8,146.8z"/>
			<path class="st2" d="M32.1,120.7c0,0.2,1.2,0.4,2.6,0.4c1.5,0,2.6-0.2,2.6-0.4c0-0.2-1.2-0.5-2.6-0.5S32.1,120.4,32.1,120.7z"/>
			<path class="st2" d="M36.7,6.3c-1.2,0-2.2,0.2-2.2,0.5c0,0.2,1,0.5,2.2,0.5s2.2-0.2,2.2-0.5S37.9,6.3,36.7,6.3z"/>
			<path class="st2" d="M39.9,38.7c0-0.2-1.2-0.3-2.6-0.3c-1.5,0-2.6,0.1-2.6,0.3s1.2,0.3,2.6,0.3S39.9,38.9,39.9,38.7z"/>
			<path class="st2" d="M34.4,86.4c0,0.2,0.8,0.4,1.7,0.4s1.7-0.1,1.7-0.4c0-0.2-0.8-0.4-1.7-0.4S34.4,86.2,34.4,86.4z"/>
			<path class="st2" d="M37.2,56.9c1.6,0,2.9-0.3,2.9-0.6s-1.3-0.6-2.9-0.6s-2.9,0.3-2.9,0.6S35.7,56.9,37.2,56.9z"/>
			<path class="st2" d="M36.1,25.1c1.6,0,2.9-0.3,2.9-0.6s-1.3-0.6-2.9-0.6c-1.6,0-2.9,0.3-2.9,0.6S34.5,25.1,36.1,25.1z"/>
		</g>
	</g>
</g>
</svg>
