<svg width="35" height="15" viewBox="0 0 35 15" fill="none" xmlns="http://www.w3.org/2000/svg">
<path d="M9.73785 12.951C9.87979 12.9557 10.0212 12.9318 10.1537 12.8808C10.2863 12.8297 10.4072 12.7525 10.5092 12.6537C10.6113 12.555 10.6924 12.4367 10.7478 12.3059C10.8032 12.1751 10.8317 12.0345 10.8316 11.8925C10.8316 11.6024 10.7164 11.3242 10.5112 11.1191C10.3061 10.914 10.0279 10.7988 9.73785 10.7988C9.44777 10.7988 9.16957 10.914 8.96445 11.1191C8.75934 11.3242 8.6441 11.6024 8.6441 11.8925C8.64403 12.0345 8.67253 12.1751 8.72791 12.3059C8.7833 12.4367 8.86443 12.555 8.96649 12.6537C9.06854 12.7525 9.18943 12.8297 9.32195 12.8808C9.45447 12.9318 9.59591 12.9557 9.73785 12.951Z" fill="#FFE59A"/>
<path d="M9.73785 12.951C9.87979 12.9557 10.0212 12.9318 10.1537 12.8808C10.2863 12.8297 10.4072 12.7525 10.5092 12.6537C10.6113 12.555 10.6924 12.4367 10.7478 12.3059C10.8032 12.1751 10.8317 12.0345 10.8316 11.8925C10.8316 11.6024 10.7164 11.3242 10.5112 11.1191C10.3061 10.914 10.0279 10.7988 9.73785 10.7988C9.44777 10.7988 9.16957 10.914 8.96445 11.1191C8.75934 11.3242 8.6441 11.6024 8.6441 11.8925C8.64403 12.0345 8.67253 12.1751 8.72791 12.3059C8.7833 12.4367 8.86443 12.555 8.96649 12.6537C9.06854 12.7525 9.18943 12.8297 9.32195 12.8808C9.45447 12.9318 9.59591 12.9557 9.73785 12.951V12.951Z" stroke="#7B7D81" stroke-width="0.359877"/>
<path d="M12.9838 5.0478C11.8548 5.18892 11.3961 6.63549 11.4314 7.44698C11.5372 9.21108 13.1249 10.5871 15.2418 10.5871C17.3588 10.5871 19.0523 9.24636 18.9817 7.12944C18.9465 5.75344 18.3114 4.73026 17.5352 3.81292C15.8416 1.80185 10.7963 4.13046 14.6421 8.29374" fill="#F8B99C"/>
<path d="M12.9838 5.0478C11.8548 5.18892 11.3961 6.63549 11.4314 7.44698C11.5372 9.21108 13.1249 10.5871 15.2418 10.5871C17.3588 10.5871 19.0523 9.24636 18.9817 7.12944C18.9465 5.75344 18.3114 4.73026 17.5352 3.81292C15.8416 1.80185 10.7963 4.13046 14.6421 8.29374" stroke="#7B7D81" stroke-width="0.719754"/>
<path d="M11.4313 7.44697C11.4313 8.92882 14.0069 9.45805 16.2297 7.55282C18.4525 5.64759 17.7821 3.88349 17.0765 3.42482" stroke="#7B7D81" stroke-width="0.359877"/>
<path d="M16.7237 7.05887C16.6756 6.88254 16.5867 6.72 16.4642 6.5844C16.3416 6.4488 16.1889 6.34396 16.0183 6.27835C15.8477 6.21274 15.6641 6.18822 15.4822 6.20676C15.3004 6.2253 15.1255 6.28638 14.9717 6.38507C14.8178 6.48376 14.6894 6.61727 14.5967 6.77481C14.5041 6.93235 14.4498 7.10949 14.4383 7.2919C14.4269 7.47431 14.4585 7.65685 14.5306 7.82477C14.6028 7.99269 14.7135 8.14126 14.8537 8.25846" stroke="#7B7D81" stroke-width="0.359877"/>
<path d="M10.8316 11.2574C9.52612 11.328 8.43237 10.199 8.43237 10.199C8.43237 10.199 9.34971 8.9641 10.6551 8.92882C11.9606 8.89354 13.0543 9.952 13.0543 9.952" fill="#ADDDEF"/>
<path d="M10.8316 11.2574C9.52612 11.328 8.43237 10.199 8.43237 10.199C8.43237 10.199 9.34971 8.9641 10.6551 8.92882C11.9606 8.89354 13.0543 9.952 13.0543 9.952" stroke="#7B7D81" stroke-width="0.730338" stroke-linecap="round"/>
<path d="M10.4082 13.9036C10.4082 13.9036 10.0201 12.457 10.7963 11.3633C11.5725 10.2695 13.1249 10.1637 13.1249 10.1637C13.1249 10.1637 13.4777 11.6808 12.7368 12.704C11.9959 13.7272 10.4082 13.9036 10.4082 13.9036Z" fill="#ADDDEF"/>
<path d="M10.4082 13.9036C10.4082 13.9036 10.0201 12.457 10.7963 11.3633C11.5725 10.2695 13.1249 10.1637 13.1249 10.1637C13.1249 10.1637 13.4777 11.6808 12.7368 12.704C11.9959 13.7272 10.4082 13.9036 10.4082 13.9036Z" stroke="#7B7D81" stroke-width="0.719754"/>
<path d="M20.8516 0.990359C20.567 1.20147 20.3775 1.51669 20.3247 1.86709C20.2718 2.2175 20.3598 2.57459 20.5694 2.86031C20.7267 3.08639 20.9482 3.26008 21.2052 3.3589C21.4623 3.45772 21.7431 3.47713 22.0113 3.41461C22.2795 3.3521 22.5228 3.21054 22.7097 3.00824C22.8966 2.80594 23.0184 2.55222 23.0595 2.2799C23.1006 2.00758 23.0591 1.7292 22.9402 1.48075C22.8214 1.23231 22.6307 1.02525 22.3929 0.886348C22.1551 0.747451 21.8811 0.683112 21.6063 0.701655C21.3315 0.720198 21.0686 0.82077 20.8516 0.990359Z" fill="#FFE59A"/>
<path d="M20.8516 0.990359C20.567 1.20147 20.3775 1.51669 20.3247 1.86709C20.2718 2.2175 20.3598 2.57459 20.5694 2.86031C20.7267 3.08639 20.9482 3.26008 21.2052 3.3589C21.4623 3.45772 21.7431 3.47713 22.0113 3.41461C22.2795 3.3521 22.5228 3.21054 22.7097 3.00824C22.8966 2.80594 23.0184 2.55222 23.0595 2.2799C23.1006 2.00758 23.0591 1.7292 22.9402 1.48075C22.8214 1.23231 22.6307 1.02525 22.3929 0.886348C22.1551 0.747451 21.8811 0.683112 21.6063 0.701655C21.3315 0.720198 21.0686 0.82077 20.8516 0.990359V0.990359Z" stroke="#7B7D81" stroke-width="0.359877"/>
<path d="M21.0281 3.38954C22.2982 2.36636 24.1682 2.64861 24.1682 2.64861C24.1682 2.64861 24.2035 4.51856 22.9686 5.54174C21.7337 6.56492 19.7932 6.28267 19.7932 6.28267" fill="#ADDDEF"/>
<path d="M21.0281 3.38954C22.2982 2.36636 24.1682 2.64861 24.1682 2.64861C24.1682 2.64861 24.2035 4.51856 22.9686 5.54174C21.7337 6.56492 19.7932 6.28267 19.7932 6.28267" stroke="#7B7D81" stroke-width="0.719754" stroke-linecap="round"/>
<path d="M19.5815 0.461128C19.5815 0.461128 21.0634 1.66072 21.0987 3.28369C21.1339 4.90667 19.6874 6.14154 19.6874 6.14154C19.6874 6.14154 18.2055 4.94195 18.1703 3.35426C18.135 1.76656 19.5815 0.461128 19.5815 0.461128Z" fill="#ADDDEF"/>
<path d="M19.5815 0.461128C19.5815 0.461128 21.0634 1.66072 21.0987 3.28369C21.1339 4.90667 19.6874 6.14154 19.6874 6.14154C19.6874 6.14154 18.2055 4.94195 18.1703 3.35426C18.135 1.76656 19.5815 0.461128 19.5815 0.461128Z" stroke="#7B7D81" stroke-width="0.719754"/>
<path d="M34.2236 2.04882C34.2236 2.04882 34.2236 3.95405 32.9534 5.01251C31.6832 6.07097 29.7427 5.78872 29.7427 5.78872C29.7427 5.78872 29.8133 3.88349 31.0482 2.82503C32.283 1.76656 34.2236 2.04882 34.2236 2.04882Z" fill="#D1E093"/>
<path d="M34.2236 2.04882C34.2236 2.04882 34.2236 3.95405 32.9534 5.01251C31.6832 6.07097 29.7427 5.78872 29.7427 5.78872C29.7427 5.78872 29.8133 3.88349 31.0482 2.82503C32.283 1.76656 34.2236 2.04882 34.2236 2.04882Z" stroke="#7B7D81" stroke-width="0.359877"/>
<path d="M27.6258 3.77764C27.1963 3.43879 26.9175 2.94448 26.8496 2.40164C26.8548 1.82857 27.0679 1.27689 27.4494 0.849231C27.8755 1.20608 28.1524 1.70959 28.2256 2.26051C28.2217 2.8233 28.0078 3.36435 27.6258 3.77764Z" fill="#D1E093"/>
<path d="M27.6258 3.77764C27.1963 3.43879 26.9175 2.94448 26.8496 2.40164C26.8548 1.82857 27.0679 1.27689 27.4494 0.849231C27.8755 1.20608 28.1524 1.70959 28.2256 2.26051C28.2217 2.8233 28.0078 3.36435 27.6258 3.77764V3.77764Z" stroke="#7B7D81" stroke-width="0.359877"/>
<path d="M28.4726 12.1395C28.7385 12.093 29.0113 12.1036 29.2729 12.1705C29.5344 12.2374 29.7788 12.3591 29.9897 12.5276C30.6248 13.0215 30.6954 14.0094 30.6954 14.0094C30.1475 14.0808 29.5928 13.9421 29.143 13.6213C28.7432 13.2278 28.5042 12.6996 28.4726 12.1395Z" fill="#D1E093"/>
<path d="M28.4726 12.1395C28.7385 12.093 29.0113 12.1036 29.2729 12.1705C29.5344 12.2374 29.7788 12.3591 29.9897 12.5276C30.6248 13.0215 30.6954 14.0094 30.6954 14.0094C30.1475 14.0808 29.5928 13.9421 29.143 13.6213C28.7432 13.2278 28.5042 12.6996 28.4726 12.1395Z" stroke="#7B7D81" stroke-width="0.359877"/>
<path d="M25.3677 9.06995C25.8181 9.05609 26.2543 8.90989 26.6221 8.64962C26.9898 8.38935 27.2727 8.02653 27.4355 7.60644C27.5983 7.18636 27.6338 6.72763 27.5375 6.28752C27.4412 5.8474 27.2174 5.4454 26.8941 5.13169C26.5707 4.81798 26.1621 4.60647 25.7193 4.52355C25.2764 4.44063 24.819 4.48998 24.404 4.66544C23.9891 4.84089 23.635 5.13469 23.386 5.51015C23.137 5.8856 23.0041 6.32609 23.0038 6.77662C23.0084 7.08242 23.0732 7.38433 23.1945 7.6651C23.3158 7.94586 23.4912 8.19998 23.7108 8.41294C23.9303 8.6259 24.1896 8.79354 24.4739 8.90627C24.7582 9.019 25.0619 9.07462 25.3677 9.06995Z" fill="#F8B99C"/>
<path d="M25.3677 9.06995C25.8181 9.05609 26.2543 8.90989 26.6221 8.64962C26.9898 8.38935 27.2727 8.02653 27.4355 7.60644C27.5983 7.18636 27.6338 6.72763 27.5375 6.28752C27.4412 5.8474 27.2174 5.4454 26.8941 5.13169C26.5707 4.81798 26.1621 4.60647 25.7193 4.52355C25.2764 4.44063 24.819 4.48998 24.404 4.66544C23.9891 4.84089 23.635 5.13469 23.386 5.51015C23.137 5.8856 23.0041 6.32609 23.0038 6.77662C23.0084 7.08242 23.0732 7.38433 23.1945 7.6651C23.3158 7.94586 23.4912 8.19998 23.7108 8.41294C23.9303 8.6259 24.1896 8.79354 24.4739 8.90627C24.7582 9.019 25.0619 9.07462 25.3677 9.06995Z" stroke="#7B7D81" stroke-width="0.719754"/>
<path d="M25.3325 4.48328C24.1682 4.55385 23.9565 5.92985 24.8385 7.30585C24.9291 7.46578 25.0515 7.60539 25.1982 7.71602C25.345 7.82666 25.5129 7.90594 25.6915 7.94895C25.8702 7.99196 26.0558 7.99779 26.2368 7.96606C26.4178 7.93433 26.5904 7.86573 26.7438 7.76451C27.273 7.44697 27.8375 6.95303 27.6611 6.17682" stroke="#7B7D81" stroke-width="0.359877"/>
<path d="M25.7559 7.62338C25.9234 7.62338 26.0871 7.57372 26.2263 7.48068C26.3656 7.38763 26.4741 7.25539 26.5382 7.10066C26.6023 6.94593 26.6191 6.77568 26.5864 6.61142C26.5537 6.44716 26.4731 6.29628 26.3547 6.17786C26.2362 6.05944 26.0854 5.97879 25.9211 5.94612C25.7568 5.91344 25.5866 5.93021 25.4319 5.9943C25.2771 6.05839 25.1449 6.16692 25.0518 6.30618C24.9588 6.44543 24.9091 6.60914 24.9091 6.77662C24.9041 6.88915 24.9226 7.00149 24.9634 7.10649C25.0042 7.2115 25.0664 7.30686 25.146 7.38651C25.2257 7.46616 25.321 7.52836 25.426 7.56914C25.531 7.60992 25.6434 7.62839 25.7559 7.62338V7.62338Z" stroke="#7B7D81" stroke-width="0.359877"/>
<path d="M19.017 7.23528C19.017 7.23528 20.5342 11.6808 24.2035 11.5397C26.9555 11.4338 28.0845 10.5165 28.5079 10.0578" stroke="#7B7D81" stroke-width="0.363405" stroke-linecap="round"/>
<path d="M24.8385 14.1858C24.8385 14.1858 23.8506 14.0094 23.4272 13.3038C23.2947 13.0635 23.2138 12.7982 23.1895 12.5248C23.1652 12.2515 23.1981 11.976 23.2861 11.7161C23.2861 11.7161 24.274 11.9278 24.6974 12.5982C24.8299 12.8385 24.9109 13.1038 24.9352 13.3771C24.9595 13.6505 24.9265 13.9259 24.8385 14.1858Z" fill="#D1E093"/>
<path d="M24.8385 14.1858C24.8385 14.1858 23.8506 14.0094 23.4272 13.3038C23.2947 13.0635 23.2138 12.7982 23.1895 12.5248C23.1652 12.2515 23.1981 11.976 23.2861 11.7161C23.2861 11.7161 24.274 11.9278 24.6974 12.5982C24.8299 12.8385 24.9109 13.1038 24.9352 13.3771C24.9595 13.6505 24.9265 13.9259 24.8385 14.1858Z" stroke="#7B7D81" stroke-width="0.359877"/>
<path d="M24.9091 8.64656C24.9569 9.28556 24.7545 9.91813 24.3446 10.4107C23.868 10.8353 23.254 11.0734 22.6158 11.081C22.582 10.4438 22.7828 9.81621 23.1803 9.31692C23.6476 8.87741 24.2676 8.637 24.9091 8.64656Z" fill="#D1E093"/>
<path d="M24.9091 8.64656C24.9569 9.28556 24.7545 9.91813 24.3446 10.4107C23.868 10.8353 23.254 11.0734 22.6158 11.081C22.582 10.4438 22.7828 9.81621 23.1803 9.31692C23.6476 8.87741 24.2676 8.637 24.9091 8.64656V8.64656Z" stroke="#7B7D81" stroke-width="0.359877"/>
<path d="M18.9817 12.2453C18.9817 12.2453 18.0644 11.3633 18.1702 10.3048C18.2761 9.24636 19.3698 8.50544 19.3698 8.50544C19.3698 8.50544 20.2872 9.42277 20.1813 10.4812C20.0755 11.5397 18.9817 12.2453 18.9817 12.2453Z" fill="#D1E093"/>
<path d="M18.9817 12.2453C18.9817 12.2453 18.0644 11.3633 18.1702 10.3048C18.2761 9.24636 19.3698 8.50544 19.3698 8.50544C19.3698 8.50544 20.2872 9.42277 20.1813 10.4812C20.0755 11.5397 18.9817 12.2453 18.9817 12.2453Z" stroke="#7B7D81" stroke-width="0.719754"/>
<path d="M23.0039 7.55282C23.0039 7.55282 22.4746 8.75241 21.4162 9.03467C20.3577 9.31692 19.3698 8.64656 19.3698 8.64656C19.3698 8.64656 19.9343 7.44697 20.9575 7.16472C21.9807 6.88246 23.0039 7.55282 23.0039 7.55282Z" fill="#D1E093"/>
<path d="M23.0039 7.55282C23.0039 7.55282 22.4746 8.75241 21.4162 9.03467C20.3577 9.31692 19.3698 8.64656 19.3698 8.64656C19.3698 8.64656 19.9343 7.44697 20.9575 7.16472C21.9807 6.88246 23.0039 7.55282 23.0039 7.55282Z" stroke="#7B7D81" stroke-width="0.719754"/>
<path d="M27.026 8.78769C27.1264 8.98966 27.1815 9.21107 27.1876 9.43652C27.1937 9.66197 27.1506 9.88603 27.0613 10.0931C26.8078 10.5031 26.4219 10.8143 25.9676 10.9752C25.7892 10.5606 25.7766 10.0934 25.9323 9.66974C26.1712 9.24712 26.5624 8.93162 27.026 8.78769Z" fill="#D1E093"/>
<path d="M27.026 8.78769C27.1264 8.98966 27.1815 9.21107 27.1876 9.43652C27.1937 9.66197 27.1506 9.88603 27.0613 10.0931C26.8078 10.5031 26.4219 10.8143 25.9676 10.9752C25.7892 10.5606 25.7766 10.0934 25.9323 9.66974C26.1712 9.24712 26.5624 8.93162 27.026 8.78769V8.78769Z" stroke="#7B7D81" stroke-width="0.359877"/>
<path d="M29.8486 7.94092C29.9173 8.16394 29.9371 8.39916 29.9066 8.63053C29.8762 8.8619 29.7962 9.08399 29.6722 9.28164C29.3808 9.67849 28.954 9.95467 28.4726 10.0578C28.4042 9.83052 28.3814 9.5919 28.4056 9.35574C28.4299 9.11959 28.5006 8.89055 28.6137 8.68185C28.9197 8.29091 29.3596 8.027 29.8486 7.94092Z" fill="#D1E093"/>
<path d="M29.8486 7.94092C29.9173 8.16394 29.9371 8.39916 29.9066 8.63053C29.8762 8.8619 29.7962 9.08399 29.6722 9.28164C29.3808 9.67849 28.954 9.95467 28.4726 10.0578C28.4042 9.83052 28.3814 9.5919 28.4056 9.35574C28.4299 9.11959 28.5006 8.89055 28.6137 8.68185C28.9197 8.29091 29.3596 8.027 29.8486 7.94092V7.94092Z" stroke="#7B7D81" stroke-width="0.359877"/>
<path d="M2.32859 8.54072C2.13777 8.91384 1.82714 9.21205 1.44654 9.38749C1.0504 9.50212 0.626911 9.47721 0.246948 9.31692C0.428004 8.93665 0.741652 8.63554 1.129 8.47015C1.52266 8.3356 1.95341 8.36094 2.32859 8.54072Z" fill="#FFE59A"/>
<path d="M2.32859 8.54072C2.13777 8.91384 1.82714 9.21205 1.44654 9.38749C1.0504 9.50212 0.626911 9.47721 0.246948 9.31692C0.428004 8.93665 0.741652 8.63554 1.129 8.47015C1.52266 8.3356 1.95341 8.36094 2.32859 8.54072Z" stroke="#7B7D81" stroke-width="0.359877"/>
<path d="M6.73888 8.29374C6.66832 8.15905 6.62571 8.01149 6.61358 7.85992C6.60146 7.70835 6.62007 7.55589 6.66831 7.41169C6.72902 7.27455 6.81645 7.15087 6.92549 7.04789C7.03453 6.9449 7.163 6.86468 7.30339 6.8119C7.37104 6.9412 7.41214 7.08272 7.42426 7.22815C7.43638 7.37357 7.41927 7.51995 7.37395 7.65867C7.24948 7.94257 7.02278 8.16927 6.73888 8.29374Z" fill="#FFE59A"/>
<path d="M6.73888 8.29374C6.66832 8.15905 6.62571 8.01149 6.61358 7.85992C6.60146 7.70835 6.62007 7.55589 6.66831 7.41169C6.72902 7.27455 6.81645 7.15087 6.92549 7.04789C7.03453 6.9449 7.163 6.86468 7.30339 6.8119C7.37104 6.9412 7.41214 7.08272 7.42426 7.22815C7.43638 7.37357 7.41927 7.51995 7.37395 7.65867C7.24948 7.94257 7.02278 8.16927 6.73888 8.29374Z" stroke="#7B7D81" stroke-width="0.359877"/>
<path d="M2.29333 6.35323C2.55675 6.15487 2.88131 6.055 3.21067 6.07097C3.50273 6.17434 3.75135 6.37324 3.91631 6.63549C3.64592 6.81625 3.32357 6.90304 2.99898 6.88246C2.70663 6.79894 2.45538 6.61049 2.29333 6.35323Z" fill="#FFE59A"/>
<path d="M2.29333 6.35323C2.55675 6.15487 2.88131 6.055 3.21067 6.07097C3.50273 6.17434 3.75135 6.37324 3.91631 6.63549C3.64592 6.81625 3.32357 6.90304 2.99898 6.88246C2.70663 6.79894 2.45538 6.61049 2.29333 6.35323Z" stroke="#7B7D81" stroke-width="0.359877"/>
<path d="M5.57451 9.10523C5.35843 8.90936 5.21017 8.64991 5.15112 8.36431C5.1534 8.22274 5.18609 8.08331 5.24696 7.95548C5.30783 7.82764 5.39547 7.71439 5.50394 7.62338C5.72002 7.81925 5.86828 8.07871 5.92733 8.36431C5.92505 8.50588 5.89237 8.6453 5.83149 8.77314C5.77062 8.90097 5.68298 9.01423 5.57451 9.10523Z" fill="#FFE59A"/>
<path d="M5.57451 9.10523C5.35843 8.90936 5.21017 8.64991 5.15112 8.36431C5.1534 8.22274 5.18609 8.08331 5.24696 7.95548C5.30783 7.82764 5.39547 7.71439 5.50394 7.62338C5.72002 7.81925 5.86828 8.07871 5.92733 8.36431C5.92505 8.50588 5.89237 8.6453 5.83149 8.77314C5.77062 8.90097 5.68298 9.01423 5.57451 9.10523V9.10523Z" stroke="#7B7D81" stroke-width="0.359877"/>
<path d="M4.128 10.1637C3.91574 9.93367 3.80178 9.6298 3.81046 9.31692C3.83206 9.16858 3.88392 9.02627 3.96282 8.89881C4.04172 8.77135 4.14598 8.66148 4.26913 8.576C4.4868 8.81685 4.60087 9.13372 4.58666 9.45805C4.56689 9.60219 4.51552 9.74018 4.43623 9.86216C4.35694 9.98414 4.25169 10.0871 4.128 10.1637Z" fill="#FFE59A"/>
<path d="M4.128 10.1637C3.91574 9.93367 3.80178 9.6298 3.81046 9.31692C3.83206 9.16858 3.88392 9.02627 3.96282 8.89881C4.04172 8.77135 4.14598 8.66148 4.26913 8.576C4.4868 8.81685 4.60087 9.13372 4.58666 9.45805C4.56689 9.60219 4.51552 9.74018 4.43623 9.86216C4.35694 9.98414 4.25169 10.0871 4.128 10.1637V10.1637Z" stroke="#7B7D81" stroke-width="0.359877"/>
<path d="M9.84366 7.27056C9.20858 6.77662 7.86787 6.00041 6.4213 6.70605C4.97474 7.41169 4.44551 8.15262 4.33966 8.50544" stroke="#7B7D81" stroke-width="0.359877" stroke-linecap="round"/>
</svg>
