<svg width="157" height="116" viewBox="0 0 157 116" fill="none" xmlns="http://www.w3.org/2000/svg">
<path d="M156.449 0.932687C156.449 0.932687 156.182 19.0535 144.057 29.1799C131.933 39.3062 113.678 36.3749 113.678 36.3749C113.678 36.3749 114.345 17.9876 126.203 8.12772C138.062 -1.73214 156.449 0.932687 156.449 0.932687ZM115.277 54.8955C115.277 54.8955 123.139 47.3007 132.998 48.2334C142.858 49.1661 149.787 58.2265 149.787 58.2265C149.787 58.2265 141.792 65.9545 132.199 65.0218C122.606 64.0891 115.277 54.8955 115.277 54.8955Z" fill="#D2E094"/>
<path d="M2.02213 67.8199C2.42185 68.2196 48.6566 101.663 84.4986 75.0149C110.481 55.4284 116.21 38.5068 117.276 30.1126" stroke="#AEB4C1" stroke-width="3.99724" stroke-linecap="round" stroke-linejoin="round"/>
<path d="M107.15 95.1344C107.15 95.1344 96.2238 99.7978 87.0301 95.8006C77.8365 91.8033 74.9052 81.2773 74.9052 81.2773C74.9052 81.2773 86.0975 76.7471 95.0246 80.4778C103.952 84.2086 107.15 95.1344 107.15 95.1344ZM70.5082 40.1057C70.5082 40.1057 78.6359 49.9655 76.7705 61.2911C74.9052 72.6166 64.2459 79.6784 64.2459 79.6784C64.2459 79.6784 56.2514 69.552 57.9835 58.6262C59.7156 47.7004 70.5082 40.1057 70.5082 40.1057ZM36.5316 115.654C36.5316 115.654 21.6086 113.122 15.4795 101.796C9.35039 90.4709 15.213 76.2141 15.213 76.2141C15.213 76.2141 30.4025 79.1454 36.2652 90.0712C42.1278 100.997 36.5316 115.654 36.5316 115.654Z" fill="#D2E094"/>
<path d="M44.5261 42.3708C44.5261 42.3708 47.191 57.5603 39.0632 67.6866C30.9355 77.813 16.1457 77.5465 16.1457 77.5465C16.1457 77.5465 13.7474 62.0905 21.6086 52.2306C29.4698 42.3708 44.5261 42.3708 44.5261 42.3708ZM91.9601 27.3145C91.9601 27.3145 100.088 31.7115 101.42 39.8392C102.753 47.9669 96.6235 55.8282 96.6235 55.8282C96.6235 55.8282 88.4958 51.1647 87.2966 43.3035C86.0975 35.4422 91.9601 27.3145 91.9601 27.3145ZM113.945 0C113.945 0 121.273 5.72938 121.54 14.3901C121.806 23.0508 114.744 30.1126 114.744 30.1126C114.744 30.1126 107.416 24.1167 107.15 15.7225C106.883 7.32828 113.945 0 113.945 0Z" fill="#D2E094"/>
</svg>
